<?xml version="1.0" encoding="UTF-8"?>
<svg version="1.1" xmlns="http://www.w3.org/2000/svg" width="1444" height="1224">
<path d="M0 0 C2.6103138 0.03762619 5.22067299 0.0722325 7.83106804 0.10372114 C11.43753605 0.14896426 15.04353527 0.20736755 18.64973736 0.27002597 C20.27078805 0.2877721 20.27078805 0.2877721 21.92458725 0.30587673 C22.90746688 0.32601385 23.89034651 0.34615097 24.90301037 0.3668983 C25.76030821 0.38048117 26.61760606 0.39406405 27.50088263 0.40805852 C29.56709576 0.68710971 29.56709576 0.68710971 31.56709576 2.68710971 C31.84556866 4.67395663 31.84556866 4.67395663 31.88594341 7.13681674 C31.9058131 8.05762027 31.92568279 8.9784238 31.94615459 9.92713046 C31.9577058 10.92300174 31.96925701 11.91887301 31.98115826 12.94492221 C32.00052441 13.96311038 32.01989056 14.98129855 32.03984356 16.03034091 C32.0997493 19.2908446 32.14606874 22.55138338 32.19209576 25.81210971 C32.23026541 28.01915658 32.26931653 30.2261884 32.30928326 32.43320346 C32.40545969 37.85103882 32.49047475 43.26896443 32.56709576 48.68710971 C35.31504528 49.60309288 36.88630196 49.80748468 39.71078777 49.79390597 C40.55343685 49.79239032 41.39608593 49.79087466 42.26426983 49.78931308 C43.18541576 49.78257571 44.1065617 49.77583835 45.05562115 49.76889682 C46.51449497 49.76429698 46.51449497 49.76429698 48.002841 49.75960422 C50.11615156 49.75244623 52.22945546 49.74305472 54.34274769 49.73170924 C57.6830327 49.7143585 61.02327015 49.70403289 64.36358929 49.69579196 C73.86123946 49.67129848 83.3588254 49.63566752 92.8564024 49.59116244 C98.66291601 49.56444535 104.46939265 49.5473602 110.27595615 49.53629375 C112.49323108 49.53006761 114.71049859 49.52004215 116.92773914 49.50621486 C120.02119604 49.48709196 123.11445705 49.48011583 126.2079649 49.47592807 C127.13113506 49.46716647 128.05430523 49.45840487 129.00545025 49.44937778 C130.26519413 49.45133403 130.26519413 49.45133403 131.55038738 49.4533298 C132.6479289 49.44861619 132.6479289 49.44861619 133.76764297 49.44380736 C135.56709576 49.68710971 135.56709576 49.68710971 137.56709576 51.68710971 C138.83491376 58.10853805 138.75097872 64.88493381 138.88350201 71.41367221 C138.91467365 72.72421069 138.91467365 72.72421069 138.94647503 74.0612247 C139.01108201 76.81145136 139.07043549 79.56176106 139.12959576 82.31210971 C139.17286582 84.1936282 139.21648258 86.07513875 139.26045513 87.95664096 C139.36667011 92.53338203 139.46817864 97.11020533 139.56709576 101.68710971 C140.20380703 101.69741717 140.8405183 101.70772464 141.49652386 101.71834445 C148.09836374 101.82617302 154.70006054 101.94078932 161.3017149 102.05942416 C163.76848145 102.10284914 166.23527953 102.14451843 168.70210552 102.18442416 C172.23923042 102.24194416 175.77619541 102.30569046 179.31318951 102.37070346 C180.42359097 102.38741595 181.53399242 102.40412845 182.67804241 102.42134738 C183.69902523 102.4412926 184.72000805 102.46123782 185.77192974 102.48178744 C187.12761311 102.50510386 187.12761311 102.50510386 188.51068401 102.52889132 C190.56709576 102.68710971 190.56709576 102.68710971 191.56709576 103.68710971 C191.68991528 105.31290189 191.74492079 106.94387975 191.77241802 108.5740726 C191.79236324 109.61507617 191.81230846 110.65607974 191.83285809 111.72862887 C191.84957058 112.86090411 191.86628307 113.99317935 191.88350201 115.15976596 C191.91467365 116.88893504 191.91467365 116.88893504 191.94647503 118.65303683 C192.01209539 122.35183127 192.07091331 126.0506993 192.12959576 129.74960971 C192.17276911 132.2502685 192.216383 134.75091972 192.26045513 137.25156283 C192.36778944 143.39666633 192.46953218 149.54184375 192.56709576 155.68710971 C193.20380703 155.69741717 193.8405183 155.70772464 194.49652386 155.71834445 C201.09836374 155.82617302 207.70006054 155.94078932 214.3017149 156.05942416 C216.76848145 156.10284914 219.23527953 156.14451843 221.70210552 156.18442416 C225.23923042 156.24194416 228.77619541 156.30569046 232.31318951 156.37070346 C233.42359097 156.38741595 234.53399242 156.40412845 235.67804241 156.42134738 C236.69902523 156.4412926 237.72000805 156.46123782 238.77192974 156.48178744 C239.67571865 156.49733172 240.57950756 156.51287601 241.51068401 156.52889132 C243.56709576 156.68710971 243.56709576 156.68710971 244.56709576 157.68710971 C244.6906451 159.48576599 244.74503901 161.28920819 244.77241802 163.09189487 C244.79236324 164.25306827 244.81230846 165.41424167 244.83285809 166.61060214 C244.84957058 167.88624026 244.86628307 169.16187839 244.88350201 170.47617221 C244.90413277 171.81295964 244.92513054 173.14974145 244.94647503 174.48651767 C244.99061976 177.31636687 245.03144674 180.14623844 245.0697813 182.97617221 C245.11762482 186.50206125 245.17150512 190.02781998 245.22774982 193.55358386 C245.53493619 212.93242715 245.62519344 232.30597759 245.56709576 251.68710971 C246.16400219 251.69741717 246.76090862 251.70772464 247.37590313 251.71834445 C253.57239805 251.82628358 259.76874383 251.94089159 265.96504498 252.05942416 C268.27946645 252.10281347 270.59392076 252.14448555 272.90840435 252.18442416 C276.22963149 252.24203003 279.55069268 252.30575222 282.87178326 252.37070346 C283.91140209 252.38741595 284.95102093 252.40412845 286.02214336 252.42134738 C286.9829884 252.4412926 287.94383343 252.46123782 288.93379498 252.48178744 C289.7820686 252.49733172 290.63034222 252.51287601 291.5043211 252.52889132 C293.56709576 252.68710971 293.56709576 252.68710971 295.56709576 253.68710971 C295.59042153 279.74659861 295.60807334 305.80608596 295.61890793 331.86558318 C295.62407157 343.96454283 295.63111557 356.06349601 295.64253521 368.16245151 C295.65247997 378.70377777 295.65894869 389.24509935 295.66118425 399.78643018 C295.66249171 405.37169105 295.6655798 410.9569385 295.67282581 416.54219508 C295.67958275 421.79270619 295.68171339 427.04319829 295.68020344 432.29371333 C295.68047991 434.22675055 295.68248697 436.15978836 295.68630123 438.09282184 C295.69123338 440.71993231 295.69009583 443.3469698 295.68735027 445.97408175 C295.69026311 446.74935857 295.69317596 447.52463539 295.69617707 448.32340544 C295.68121697 453.5729885 295.68121697 453.5729885 294.56709576 454.68710971 C288.62295186 455.82877856 282.76714226 455.83013386 276.72976971 455.82082248 C275.10794491 455.82422081 275.10794491 455.82422081 273.45335597 455.8276878 C269.83606626 455.83401013 266.2188142 455.83319958 262.60151958 455.83237338 C260.0060245 455.83536586 257.41052987 455.83876859 254.81503582 455.84255099 C248.50133339 455.85084222 242.1876403 455.85360509 235.87393288 455.85416337 C230.74350701 455.85463899 225.61308423 455.856696 220.48265934 455.859864 C205.93516998 455.86866419 191.38768798 455.87328403 176.84019593 455.87253352 C176.05663782 455.87249357 175.2730797 455.87245361 174.4657774 455.87241244 C173.68126285 455.87237156 172.8967483 455.87233068 172.08846059 455.87228856 C159.3590046 455.87188164 146.62957812 455.88146452 133.90013067 455.89555081 C120.82790419 455.90990236 107.75569212 455.91682176 94.68345755 455.91595703 C87.3448866 455.91562478 80.00634664 455.91838469 72.66778278 455.92913508 C65.77231867 455.93917192 58.87692119 455.93891737 51.9814539 455.93161845 C49.44657451 455.9305688 46.91169111 455.93295787 44.37681866 455.93897891 C40.9256244 455.94664775 37.47465987 455.94208806 34.02347088 455.93434787 C33.01268673 455.93949143 32.00190259 455.94463499 30.96048862 455.94993442 C30.03722488 455.94533563 29.11396115 455.94073683 28.16271973 455.93599868 C27.36606378 455.93621605 26.56940783 455.93643341 25.74861079 455.93665737 C23.31348401 455.65809858 21.67930937 454.90113885 19.56709576 453.68710971 C19.31515095 431.87988695 19.31515095 431.87988695 20.56709576 424.68710971 C23.21672995 423.36229261 25.32463122 423.49105001 28.28975201 423.40585971 C29.46118755 423.36904086 30.6326231 423.33222201 31.83955669 423.29428744 C33.09026958 423.25891879 34.34098248 423.22355014 35.62959576 423.18710971 C46.29154666 422.8502661 56.92278306 422.37821909 67.56709576 421.68710971 C68.35395069 401.44953382 68.75431203 381.23297524 68.87041879 360.98100591 C68.89285437 357.22151128 68.91995104 353.46204973 68.94647503 349.70258212 C68.99564825 342.63811414 69.04085423 335.57362705 69.08449739 328.50912297 C69.13453025 320.44326253 69.18919515 312.37743534 69.24417698 304.31160736 C69.35683416 287.77013907 69.46390888 271.22863985 69.56709576 254.68710971 C69.02030163 254.67680224 68.4735075 254.66649478 67.91014385 254.65587497 C62.23268191 254.54791643 56.55538211 254.43330997 50.87813091 254.31479526 C48.75772263 254.27141219 46.63727864 254.22973963 44.51680279 254.18979526 C41.47356168 254.13217428 38.43050086 254.06845646 35.38740826 254.00351596 C34.43528454 253.98680346 33.48316082 253.97009097 32.50218487 253.95287204 C31.62142284 253.93292682 30.74066082 253.9129816 29.83320904 253.89243197 C29.05599499 253.87688769 28.27878094 253.86134341 27.47801495 253.84532809 C25.56709576 253.68710971 25.56709576 253.68710971 23.56709576 252.68710971 C23.57042667 251.78841914 23.57042667 251.78841914 23.57382488 250.87157321 C23.5958774 244.65913113 23.61100221 238.44670009 23.6220274 232.23422885 C23.62706909 229.9129352 23.63390227 227.59164474 23.64253521 225.27036166 C23.654608 221.94182176 23.66032554 218.61332369 23.66475201 215.28476596 C23.66991329 214.23998584 23.67507458 213.19520572 23.68039227 212.11876559 C23.68050556 210.67738475 23.68050556 210.67738475 23.68062115 209.2068851 C23.68395206 207.93114375 23.68395206 207.93114375 23.68735027 206.62962985 C23.7818986 204.68122426 23.7818986 204.68122426 22.56709576 203.68710971 C20.91578233 203.56942293 19.25955875 203.51980583 17.60420513 203.49765658 C16.5464085 203.48093905 15.48861187 203.46422153 14.3987608 203.4469974 C13.24774883 203.43342196 12.09673687 203.41984653 10.91084576 203.40585971 C9.15194012 203.37824557 9.15194012 203.37824557 7.35750103 203.35007358 C3.59408539 203.29110392 -0.16937623 203.2383761 -3.93290424 203.18710971 C-8.88092291 203.11970831 -13.82878748 203.0460393 -18.77665424 202.96835971 C-19.92766621 202.95478427 -21.07867817 202.94120883 -22.26456928 202.92722201 C-23.32236591 202.91050448 -24.38016254 202.89378695 -25.47001362 202.87656283 C-26.40631611 202.86403476 -27.3426186 202.85150668 -28.30729389 202.83859897 C-30.43290424 202.68710971 -30.43290424 202.68710971 -31.43290424 201.68710971 C-31.76290424 186.17710971 -32.09290424 170.66710971 -32.43290424 154.68710971 C-83.25290424 154.68710971 -134.07290424 154.68710971 -186.43290424 154.68710971 C-187.57519214 156.97168551 -187.56863807 158.27450002 -187.59061909 160.81381869 C-187.60601231 162.09040599 -187.60601231 162.09040599 -187.6217165 163.39278293 C-187.62901783 164.3136217 -187.63631916 165.23446048 -187.64384174 166.18320346 C-187.67190448 168.12266511 -187.7005689 170.06211813 -187.72977924 172.00156283 C-187.77109976 175.06739752 -187.8079768 178.13307007 -187.83427143 181.1990726 C-187.86181324 184.15245676 -187.90767885 187.10510207 -187.95634174 190.05820346 C-187.95959461 190.977018 -187.96284748 191.89583255 -187.96619892 192.84248996 C-187.98276539 193.69670032 -187.99933186 194.55091067 -188.01640034 195.43100619 C-188.02448719 196.18220233 -188.03257404 196.93339847 -188.04090595 197.70735812 C-188.55328067 200.29505985 -189.29185169 201.16229637 -191.43290424 202.68710971 C-193.61593342 203.08583713 -193.61593342 203.08583713 -196.17973042 203.11948276 C-197.14049992 203.13927691 -198.10126942 203.15907107 -199.09115314 203.17946506 C-200.12561069 203.18585498 -201.16006824 203.1922449 -202.22587299 203.19882846 C-203.28703831 203.21677966 -204.34820362 203.23473086 -205.44152546 203.25322604 C-208.8344445 203.30745494 -212.22722186 203.3412656 -215.62040424 203.37460971 C-217.91925214 203.40777161 -220.21808131 203.44226021 -222.51688862 203.47812533 C-228.15543345 203.56318852 -233.79399634 203.63148505 -239.43290424 203.68710971 C-239.4409911 204.27148807 -239.44907795 204.85586642 -239.45740986 205.45795321 C-239.54327988 211.52479946 -239.64277499 217.5913123 -239.75028706 223.65781283 C-239.78863695 225.92370653 -239.82347907 228.18966236 -239.85477924 230.4556644 C-239.90029951 233.70751837 -239.958315 236.95894231 -240.01884174 240.21054721 C-240.03039295 241.22829226 -240.04194416 242.24603732 -240.05384541 243.29462314 C-240.0737151 244.23544742 -240.09358479 245.1762717 -240.11405659 246.1456058 C-240.12738026 246.97611453 -240.14070393 247.80662326 -240.15443134 248.66229892 C-240.43290424 250.68710971 -240.43290424 250.68710971 -242.43290424 252.68710971 C-244.41975117 252.96558261 -244.41975117 252.96558261 -246.88261127 253.00595737 C-248.26381657 253.0357619 -248.26381657 253.0357619 -249.672925 253.06616855 C-250.66879627 253.07771976 -251.66466755 253.08927096 -252.69071674 253.10117221 C-253.70890491 253.12053836 -254.72709309 253.13990451 -255.77613544 253.15985751 C-259.03663913 253.21976326 -262.29717792 253.26608269 -265.55790424 253.31210971 C-267.76495112 253.35027936 -269.97198293 253.38933048 -272.17899799 253.42929721 C-277.59683335 253.52547365 -283.01475897 253.6104887 -288.43290424 253.68710971 C-290.12936537 257.08003196 -289.56923275 260.94480053 -289.55988789 264.67708468 C-289.56144788 265.61997743 -289.56300787 266.56287018 -289.56461513 267.53433543 C-289.56862353 270.71344963 -289.56543608 273.89251659 -289.56229877 277.07163119 C-289.56365289 279.34289206 -289.56543289 281.6141527 -289.56760883 283.88541293 C-289.57218214 290.06918847 -289.57039395 296.25294739 -289.56722975 302.43672323 C-289.56470532 308.89624889 -289.56704395 315.35577308 -289.56861591 321.8152988 C-289.57055432 333.36175574 -289.56743817 344.90820416 -289.56235658 356.45465977 C-289.55788967 366.9287126 -289.55866368 377.40275434 -289.56327534 387.87680697 C-289.56862425 400.0310645 -289.57062017 412.18531333 -289.56766307 424.33957225 C-289.5661012 430.77664817 -289.56590406 437.21371645 -289.56919956 443.65079188 C-289.57208105 449.70241567 -289.57009742 455.75401847 -289.56430531 461.80563998 C-289.56297915 464.03132284 -289.56336939 466.25700745 -289.56556797 468.48268962 C-289.56828513 471.51186758 -289.56489129 474.54097751 -289.55988789 477.57015109 C-289.56211861 478.45885738 -289.56434933 479.34756368 -289.56664765 480.26320046 C-289.55572694 483.65281838 -289.51230189 486.44891676 -288.43290424 489.68710971 C-113.53290424 490.01710971 61.36709576 490.34710971 241.56709576 490.68710971 C242.79415981 494.36830187 242.70997728 497.76454641 242.69990826 501.59726596 C242.70122753 502.38934451 242.70254681 503.18142306 242.70390606 503.997504 C242.70582581 506.58157873 242.69948075 509.16554595 242.69209576 511.74960971 C242.69120953 512.62360415 242.6903233 513.4975986 242.68941021 514.39807773 C242.67176299 529.17949309 242.33371438 543.92358459 241.56709576 558.68710971 C225.56869581 559.39556797 209.56879103 560.057568 193.56709576 560.68710971 C192.69857945 571.31178158 192.28254986 581.90909318 192.00459576 592.56210971 C191.96125502 594.13633617 191.91763673 595.71055501 191.87373638 597.28476596 C191.76833586 601.08546737 191.66664663 604.88625077 191.56709576 608.68710971 C188.4508252 610.50436226 186.20583183 610.9326702 182.61494732 610.91416049 C181.6342326 610.91400943 180.65351788 610.91385837 179.64308453 610.91370273 C178.59191448 610.90338016 177.54074444 610.89305758 176.45772076 610.88242221 C175.37577435 610.87959231 174.29382793 610.87676242 173.17909527 610.87384677 C169.72498272 610.8626558 166.27112988 610.83755291 162.81709576 610.81210971 C160.47465159 610.80207852 158.13220335 610.79295291 155.78975201 610.78476596 C150.04877805 610.76272 144.30795546 610.72925305 138.56709576 610.68710971 C138.57233257 611.78063754 138.57756939 612.87416537 138.5829649 614.00083041 C138.60123665 618.10661617 138.6126078 622.21239842 138.6220274 626.31821322 C138.6270174 628.08612304 138.63381177 629.85402882 138.64253521 631.62192416 C138.7447874 652.8963951 138.7447874 652.8963951 137.56709576 659.68710971 C135.38647336 661.86773211 130.17298903 660.84147852 127.13789654 660.84482455 C125.65260952 660.85244563 125.65260952 660.85244563 124.1373167 660.86022067 C121.97924603 660.87095013 119.82116405 660.87956013 117.66307735 660.8863399 C114.2512118 660.89808575 110.83947531 660.91752692 107.42766094 660.93945956 C97.72434542 661.00122372 88.02104217 661.05516762 78.31758404 661.0884769 C72.39005183 661.10937683 66.46275292 661.14464388 60.53535366 661.1892345 C58.27149858 661.20343393 56.0076022 661.21212577 53.7437048 661.21528888 C50.58058152 661.22017613 47.41808151 661.24327806 44.25508404 661.2706058 C43.31366558 661.26759967 42.37224712 661.26459353 41.40230083 661.26149631 C40.54137829 661.27258929 39.68045574 661.28368228 38.79344463 661.29511142 C38.04532576 661.29842156 37.29720688 661.30173171 36.52641773 661.30514216 C33.98279601 661.80101827 33.09496253 662.61688687 31.56709576 664.68710971 C31.34168474 667.44294725 31.28952616 669.96687532 31.37959576 672.71445346 C31.39095562 673.49977954 31.40231548 674.28510562 31.41401958 675.09422946 C31.46306029 678.45316332 31.54742491 681.81100179 31.62861919 685.16928744 C31.68288129 687.62179124 31.71915827 690.07411707 31.75459576 692.52695346 C31.77949078 693.28435321 31.8043858 694.04175296 31.83003521 694.82210422 C31.87244899 697.86419415 31.84185927 700.17688411 30.38225192 702.88732052 C27.94816185 705.30080377 26.62595292 705.1895751 23.23162842 705.19491839 C22.11793548 705.20636598 21.00424254 705.21781357 19.85680133 705.22960806 C18.6282183 705.22184764 17.39963526 705.21408722 16.13382244 705.20609164 C14.83268952 705.21359289 13.53155659 705.22109415 12.1909954 705.22882271 C8.57195322 705.24914978 4.95330151 705.24451191 1.33422816 705.23591518 C-2.56559645 705.23098418 -6.46532122 705.24903794 -10.36510944 705.26433444 C-17.12422855 705.28768444 -23.88324027 705.29639332 -30.64239788 705.29522586 C-40.41504103 705.29355896 -50.1875407 705.3138674 -59.96014563 705.33958116 C-75.81458357 705.38069882 -91.66899576 705.40398436 -107.52348042 705.41611362 C-122.92682592 705.42793579 -138.33012292 705.44812029 -153.73344135 705.47959018 C-155.15705599 705.48249433 -155.15705599 705.48249433 -156.60943051 705.48545715 C-161.37055356 705.49522149 -166.13167625 705.50515064 -170.89279878 705.51516175 C-210.40614421 705.59803228 -249.91948922 705.65198745 -289.43290424 705.68710971 C-290.13071431 713.04141378 -290.57496196 720.30339852 -290.51951313 727.68981051 C-290.51683973 728.62082975 -290.51416632 729.55184898 -290.51141191 730.51108092 C-290.5014559 733.59006002 -290.48423409 736.66895399 -290.46708393 739.74790072 C-290.45860553 741.97137396 -290.45065467 744.19484927 -290.44318867 746.41832614 C-290.42654057 751.18504875 -290.40712453 755.95174921 -290.38580799 760.71845317 C-290.353089 768.2519286 -290.33245628 775.78540687 -290.31455708 783.31893039 C-290.31147061 784.59230134 -290.30838415 785.86567229 -290.30520415 787.17763025 C-290.29889733 789.77987357 -290.29260757 792.38211693 -290.28633451 794.98436034 C-290.26998293 801.65131214 -290.25245336 808.31826002 -290.23368549 814.98520541 C-290.23180844 815.6535114 -290.22993139 816.32181739 -290.22799745 817.01037508 C-290.19702087 827.87140839 -290.15134579 838.73233979 -290.10127577 849.59329963 C-290.05023672 860.75931989 -290.01856559 871.92530871 -290.0031321 883.09144038 C-289.99374003 889.35524813 -289.97508943 895.61873254 -289.93481922 901.88242412 C-289.89711971 907.76190536 -289.88240094 913.64098409 -289.88565922 919.52058101 C-289.88267687 921.68180042 -289.87105756 923.84302707 -289.85033512 926.0041492 C-289.82337111 928.9456976 -289.82691949 931.88564953 -289.83836079 934.82726169 C-289.82311446 935.68969204 -289.80786813 936.55212239 -289.7921598 937.440687 C-289.82045841 939.82196021 -289.82045841 939.82196021 -290.43290424 943.68710971 C-293.38141523 946.33120378 -295.85736708 947.06397228 -299.76420307 947.02768588 C-300.99491283 947.02734599 -300.99491283 947.02734599 -302.25048542 947.02699924 C-303.12150394 947.01151538 -303.99252247 946.99603152 -304.88993549 946.98007846 C-305.7928986 946.97583362 -306.6958617 946.97158877 -307.62618732 946.9672153 C-310.49956774 946.95047281 -313.37223715 946.91282886 -316.24540424 946.87460971 C-318.19786805 946.85955714 -320.15034288 946.84586973 -322.10282612 946.83359408 C-326.87979122 946.80058379 -331.65622733 946.74883206 -336.43290424 946.68710971 C-336.4409911 947.83525149 -336.44907795 948.98339328 -336.45740986 950.16632724 C-336.53477335 960.96745505 -336.6224875 971.76845537 -336.72043133 982.56941676 C-336.77045434 988.12278231 -336.8167837 993.67612828 -336.85477924 999.22959018 C-336.89155636 1004.58536334 -336.93789533 1009.94097498 -336.99096775 1015.29661059 C-337.00955209 1017.34358658 -337.02464498 1019.39059723 -337.03624821 1021.43762469 C-337.05304176 1024.29683485 -337.08205956 1027.1556718 -337.11405659 1030.01474643 C-337.11729687 1031.29436252 -337.11729687 1031.29436252 -337.12060261 1032.59982944 C-337.20479992 1038.45900539 -337.20479992 1038.45900539 -339.43290424 1040.68710971 C-341.7234621 1040.96558261 -341.7234621 1040.96558261 -344.61698627 1041.00595737 C-345.69795582 1041.02582705 -346.77892536 1041.04569674 -347.89265156 1041.06616855 C-349.06351307 1041.07771976 -350.23437458 1041.08927096 -351.44071674 1041.10117221 C-352.63647327 1041.12053836 -353.8322298 1041.13990451 -355.06422138 1041.15985751 C-358.89537572 1041.21978915 -362.72655989 1041.26609331 -366.55790424 1041.31210971 C-369.1503655 1041.35027695 -371.7428139 1041.38932792 -374.33524799 1041.42929721 C-380.70101961 1041.52550181 -387.06686819 1041.61050932 -393.43290424 1041.68710971 C-393.43068363 1042.31129291 -393.42846302 1042.9354761 -393.42617512 1043.57857394 C-393.40412344 1050.05053775 -393.38899814 1056.52249096 -393.3779726 1062.99448276 C-393.37293075 1065.41278143 -393.36609746 1067.83107704 -393.35746479 1070.24936557 C-393.34539268 1073.71690254 -393.33967461 1077.18439937 -393.33524799 1080.65195346 C-393.33008671 1081.74048114 -393.32492542 1082.82900882 -393.31960773 1083.95052218 C-393.3195322 1084.95148425 -393.31945667 1085.95244632 -393.31937885 1086.98374057 C-393.31715824 1087.86976459 -393.31493763 1088.7557886 -393.31264973 1089.66866183 C-393.43290424 1091.68710971 -393.43290424 1091.68710971 -394.43290424 1092.68710971 C-396.08934791 1092.81001689 -397.75089417 1092.86494879 -399.41166401 1092.89243197 C-400.47268833 1092.9123772 -401.53371265 1092.93232242 -402.62688923 1092.95287204 C-403.78103825 1092.96958453 -404.93518726 1092.98629703 -406.12431049 1093.00351596 C-407.88677364 1093.0346876 -407.88677364 1093.0346876 -409.68484211 1093.06648898 C-413.45496748 1093.13211095 -417.22516506 1093.19092801 -420.99540424 1093.24960971 C-423.54423997 1093.29278291 -426.09306828 1093.33639679 -428.64188862 1093.38046908 C-434.90548316 1093.48780516 -441.16915025 1093.5895476 -447.43290424 1093.68710971 C-447.42624241 1094.28179553 -447.41958057 1094.87648135 -447.41271687 1095.48918796 C-447.34643144 1101.66944616 -447.301132 1107.84960366 -447.26810932 1114.03012729 C-447.25300748 1116.33778618 -447.23252455 1118.64541632 -447.20658588 1120.95297885 C-447.17026449 1124.2667717 -447.15319188 1127.58018563 -447.13993549 1130.89414096 C-447.12445164 1131.92859851 -447.10896778 1132.96305606 -447.09301472 1134.02886081 C-447.09278812 1134.98963031 -447.09256153 1135.95039981 -447.09232807 1136.94028354 C-447.08566624 1137.78633655 -447.0790044 1138.63238955 -447.07214069 1139.50408053 C-447.52551267 1142.24749585 -448.28105563 1142.96963406 -450.43290424 1144.68710971 C-452.37940216 1145.07187057 -452.37940216 1145.07187057 -454.62801838 1145.08583713 C-455.48197193 1145.09837527 -456.33592548 1145.11091342 -457.21575642 1145.12383151 C-458.14939518 1145.12239642 -459.08303394 1145.12096133 -460.04496479 1145.11948276 C-461.0305135 1145.12967441 -462.0160622 1145.13986606 -463.03147602 1145.15036654 C-466.29424873 1145.18059928 -469.55672837 1145.18977829 -472.81962299 1145.19882846 C-475.07979027 1145.2156675 -477.33994813 1145.23381668 -479.6000948 1145.25322604 C-485.55292032 1145.30081616 -491.5057077 1145.33056729 -497.45866108 1145.35666537 C-503.53153232 1145.38642542 -509.60427202 1145.43297135 -515.67704487 1145.47812533 C-527.59559598 1145.56426101 -539.51417409 1145.63156065 -551.43290424 1145.68710971 C-551.44321171 1146.27370868 -551.45351917 1146.86030765 -551.46413898 1147.46468234 C-551.57197619 1153.54748841 -551.6865918 1159.63013945 -551.8052187 1165.71274447 C-551.84864089 1167.98549807 -551.8903104 1170.25828584 -551.9302187 1172.53110385 C-551.98774543 1175.79024203 -552.05148976 1179.04920702 -552.11649799 1182.30820346 C-552.13321049 1183.3311098 -552.14992298 1184.35401614 -552.16714191 1185.40791965 C-552.18708714 1186.34881946 -552.20703236 1187.28971927 -552.22758198 1188.25913119 C-552.2508984 1189.5082252 -552.2508984 1189.5082252 -552.27468586 1190.78255343 C-552.43290424 1192.68710971 -552.43290424 1192.68710971 -553.43290424 1193.68710971 C-556.49074236 1193.84183571 -559.52797322 1193.93236062 -562.58817768 1193.9815433 C-563.54500698 1194.00064384 -564.50183628 1194.01974437 -565.48766041 1194.0394237 C-568.67246014 1194.10149556 -571.85733877 1194.15621146 -575.04227924 1194.21054721 C-577.27810327 1194.25183697 -579.51392274 1194.29337477 -581.74973774 1194.33515048 C-588.6439853 1194.46146384 -595.53839365 1194.57618201 -602.43290424 1194.68710971 C-603.97411442 1194.71204249 -603.97411442 1194.71204249 -605.54646015 1194.73747897 C-620.25813436 1194.97313182 -634.97016816 1195.15752886 -649.68290424 1195.31210971 C-650.72984329 1195.32330592 -651.77678234 1195.33450213 -652.85544682 1195.34603763 C-699.61275686 1195.84088719 -746.34535352 1195.48404954 -793.09767628 1194.72478366 C-795.34651341 1194.68850344 -797.59536254 1194.65312546 -799.84422016 1194.61813998 C-808.12408083 1194.48912307 -816.40358775 1194.34737782 -824.68290424 1194.18710971 C-826.1290662 1194.16043216 -826.1290662 1194.16043216 -827.60444355 1194.13321567 C-830.17763577 1194.08392916 -832.75055428 1194.0277999 -835.32352924 1193.96835971 C-836.05067631 1193.95481448 -836.77782337 1193.94126925 -837.5270052 1193.92731357 C-842.3171289 1193.80288505 -842.3171289 1193.80288505 -843.43290424 1192.68710971 C-843.55523068 1191.21460326 -843.61064984 1189.73645259 -843.63822651 1188.25913119 C-843.65817173 1187.31823138 -843.67811695 1186.37733157 -843.69866657 1185.40791965 C-843.72373531 1183.87356013 -843.72373531 1183.87356013 -843.74931049 1182.30820346 C-843.77009159 1181.26640429 -843.79087269 1180.22460513 -843.81228352 1179.1512363 C-843.87789481 1175.80909724 -843.93671755 1172.46687685 -843.99540424 1169.12460971 C-844.03857846 1166.86483553 -844.08219238 1164.6050697 -844.12626362 1162.34531283 C-844.23358791 1156.7926655 -844.33533236 1151.2399365 -844.43290424 1145.68710971 C-845.73138294 1145.66427417 -847.02986164 1145.64143863 -848.36768818 1145.6179111 C-860.58156163 1145.4024883 -872.79533528 1145.18203912 -885.00902843 1144.95661902 C-891.28878708 1144.84088059 -897.56856777 1144.72693744 -903.84843159 1144.61704135 C-909.90444317 1144.51099748 -915.96035343 1144.40031075 -922.01622105 1144.28635097 C-924.33113939 1144.24361524 -926.64608969 1144.20257641 -928.96106815 1144.16323161 C-932.19380498 1144.10800398 -935.42637745 1144.04684158 -938.65897846 1143.98422885 C-939.62426472 1143.96912265 -940.58955097 1143.95401645 -941.58408833 1143.93845248 C-942.90082035 1143.91114802 -942.90082035 1143.91114802 -944.24415302 1143.88329196 C-945.0092412 1143.86946507 -945.77432938 1143.85563817 -946.56260204 1143.84139228 C-948.43290424 1143.68710971 -948.43290424 1143.68710971 -950.43290424 1142.68710971 C-950.76290424 1126.18710971 -951.09290424 1109.68710971 -951.43290424 1092.68710971 C-967.42359593 1092.43748965 -967.42359593 1092.43748965 -983.4145937 1092.20908237 C-985.41680465 1092.17388247 -987.41900312 1092.1379619 -989.42118549 1092.10117221 C-990.46383564 1092.08981235 -991.50648579 1092.07845248 -992.58073139 1092.06674838 C-993.57520283 1092.04668735 -994.56967426 1092.02662631 -995.5942812 1092.00595737 C-996.4580991 1091.9926337 -997.321917 1091.97931003 -998.2119112 1091.96558261 C-1000.43290424 1091.68710971 -1000.43290424 1091.68710971 -1003.43290424 1089.68710971 C-1003.82490253 1087.59310031 -1003.82490253 1087.59310031 -1003.84940815 1084.97788119 C-1003.86597462 1084.0002431 -1003.88254108 1083.02260501 -1003.89960957 1082.01534152 C-1003.90286243 1080.95698596 -1003.9061153 1079.8986304 -1003.90946674 1078.80820346 C-1003.92504627 1077.72579883 -1003.9406258 1076.64339419 -1003.95667744 1075.52818942 C-1004.00434175 1072.06033701 -1004.03201054 1068.5926874 -1004.05790424 1065.12460971 C-1004.09432786 1061.65310393 -1004.13489274 1058.1817148 -1004.18055439 1054.71031833 C-1004.20789283 1052.54692507 -1004.22919493 1050.38344606 -1004.24409199 1048.21993136 C-1004.25435413 1047.24544543 -1004.26461628 1046.2709595 -1004.2751894 1045.26694369 C-1004.28168507 1044.40471698 -1004.28818073 1043.54249026 -1004.29487324 1042.65413547 C-1004.21701722 1040.68437189 -1004.21701722 1040.68437189 -1005.43290424 1039.68710971 C-1006.99226489 1039.56968455 -1008.55678596 1039.51984113 -1010.12040424 1039.49765658 C-1011.11813862 1039.48093905 -1012.11587299 1039.46422153 -1013.14384174 1039.4469974 C-1014.22923237 1039.43342196 -1015.31462299 1039.41984653 -1016.43290424 1039.40585971 C-1017.53891987 1039.38745028 -1018.64493549 1039.36904086 -1019.78446674 1039.35007358 C-1023.33388999 1039.29110848 -1026.88336197 1039.23837875 -1030.43290424 1039.18710971 C-1035.09967894 1039.11970354 -1039.76629046 1039.04603463 -1044.43290424 1038.96835971 C-1045.51829487 1038.95478427 -1046.60368549 1038.94120883 -1047.72196674 1038.92722201 C-1048.71970112 1038.91050448 -1049.71743549 1038.89378695 -1050.74540424 1038.87656283 C-1051.62841206 1038.86403476 -1052.51141987 1038.85150668 -1053.42118549 1038.83859897 C-1055.43290424 1038.68710971 -1055.43290424 1038.68710971 -1056.43290424 1037.68710971 C-1056.68614623 1034.66637831 -1056.86583314 1031.67128574 -1056.99540424 1028.64414096 C-1057.03786274 1027.67636218 -1057.08032124 1026.7085834 -1057.12406635 1025.71147799 C-1057.66995004 1011.60657673 -1057.50190784 997.48706231 -1057.43290424 983.37460971 C-1057.40906318 978.44035203 -1057.38883388 973.50612594 -1057.37696552 968.57182384 C-1057.37059026 966.6304724 -1057.35801712 964.68914441 -1057.34525776 962.74782443 C-1057.32735865 956.30166134 -1057.56027724 950.07592462 -1058.43290424 943.68710971 C-1059.0172826 943.67902286 -1059.60166096 943.670936 -1060.20374775 943.66260409 C-1066.27059399 943.57673407 -1072.33710684 943.47723896 -1078.40360737 943.3697269 C-1080.66950106 943.331377 -1082.93545689 943.29653488 -1085.20145893 943.26523471 C-1088.45331291 943.21971444 -1091.70473685 943.16169895 -1094.95634174 943.10117221 C-1095.9740868 943.089621 -1096.99183186 943.07806979 -1098.04041767 943.06616855 C-1098.98124195 943.04629886 -1099.92206623 943.02642917 -1100.89140034 943.00595737 C-1101.72190907 942.9926337 -1102.55241779 942.97931003 -1103.40809345 942.96558261 C-1105.43290424 942.68710971 -1105.43290424 942.68710971 -1107.43290424 940.68710971 C-1107.63265232 938.07110211 -1107.7065615 935.56059981 -1107.69360065 932.94321322 C-1107.6974262 932.13437214 -1107.70125175 931.32553105 -1107.70519322 930.49217963 C-1107.71555816 927.76672669 -1107.71152451 925.04148305 -1107.70756245 922.31601596 C-1107.71190696 920.36824988 -1107.71708923 918.42048552 -1107.72305012 916.47272372 C-1107.73647858 911.1712049 -1107.73701458 905.86975719 -1107.73448682 900.56822467 C-1107.73341983 896.14939332 -1107.7382934 891.73057651 -1107.74309224 887.31174827 C-1107.75420047 876.89161036 -1107.75461727 866.47150849 -1107.74857807 856.05136752 C-1107.74253425 845.28473695 -1107.75485668 834.51823693 -1107.77614814 823.75162864 C-1107.79373238 814.52190097 -1107.79977058 805.29221497 -1107.7965104 796.06247115 C-1107.79469251 790.5436887 -1107.79738397 785.02499939 -1107.81122494 779.50623202 C-1107.82374731 774.31882681 -1107.82191252 769.13162598 -1107.80881405 763.94422412 C-1107.80643656 762.03579397 -1107.80922452 760.12734969 -1107.81743717 758.21893573 C-1107.82780774 755.62271776 -1107.81988296 753.02719806 -1107.80712605 750.43100619 C-1107.81450033 749.66778835 -1107.82187461 748.90457051 -1107.82947236 748.11822486 C-1107.80763435 746.01985812 -1107.80763435 746.01985812 -1107.43290424 742.68710971 C-1103.56636156 740.10941459 -1100.36885412 740.3981935 -1095.88450336 740.40863681 C-1095.00038595 740.40284441 -1094.11626854 740.397052 -1093.2053597 740.39108407 C-1090.22876254 740.37401895 -1087.25231989 740.37120148 -1084.27567768 740.36826205 C-1082.14462115 740.35896526 -1080.01356827 740.34879696 -1077.88251972 740.33782077 C-1072.06981741 740.31039876 -1066.25713955 740.29532213 -1060.44438934 740.28239274 C-1054.32173841 740.26672524 -1048.19913615 740.23991971 -1042.07651997 740.21436191 C-1030.42056976 740.16743341 -1018.76460999 740.13079802 -1007.10861325 740.09768903 C-994.03699438 740.06001666 -980.96543089 740.01024825 -967.89385653 739.95970488 C-941.96696771 739.86019537 -916.04004421 739.76458184 -890.11301827 739.70929515 C-884.5994202 739.69743931 -879.08584342 739.68329798 -873.57226276 739.66496158 C-867.9874158 739.64643339 -862.40257654 739.63267903 -856.81770849 739.6224041 C-854.72163041 739.61772083 -852.6255554 739.61131883 -850.52948809 739.60312796 C-847.66347984 739.59221657 -844.79752612 739.58743374 -841.93150043 739.58423495 C-841.07860384 739.57954644 -840.22570725 739.57485794 -839.34696531 739.57002735 C-833.54700222 739.57301173 -833.54700222 739.57301173 -832.43290424 740.68710971 C-832.34499449 742.97862388 -832.32596386 745.27283495 -832.33524799 747.56601596 C-832.33737041 748.59600963 -832.33737041 748.59600963 -832.33953571 749.64681125 C-832.34514945 751.84778772 -832.35770417 754.0486638 -832.37040424 756.24960971 C-832.37541748 757.73854054 -832.37998069 759.22747295 -832.38407612 760.71640658 C-832.39512331 764.37334046 -832.41239711 768.03021529 -832.43290424 771.68710971 C-847.62500746 776.75114411 -864.42297396 773.33133348 -880.43290424 773.68710971 C-880.43290424 828.46710971 -880.43290424 883.24710971 -880.43290424 939.68710971 C-869.35408129 940.49960983 -869.35408129 940.49960983 -858.28446674 941.00351596 C-857.61619862 941.02429706 -856.94793049 941.04507815 -856.25941181 941.06648898 C-854.19231242 941.1301792 -852.12512477 941.18999706 -850.05790424 941.24960971 C-848.6282088 941.29296826 -847.19852121 941.33658686 -845.76884174 941.38046908 C-842.32361419 941.48566473 -838.87829537 941.58739664 -835.43290424 941.68710971 C-835.42259678 942.28623675 -835.41228931 942.8853638 -835.4016695 943.50264621 C-835.2938346 949.71521059 -835.1792188 955.92762312 -835.06058979 962.13999057 C-835.01716685 964.46124744 -834.9754974 966.78253779 -834.93558979 969.10385776 C-834.87806485 972.43249249 -834.81431999 975.76095756 -834.74931049 979.08945346 C-834.72424175 980.65662364 -834.72424175 980.65662364 -834.69866657 982.25545382 C-834.67872135 983.21637439 -834.65877613 984.17729495 -834.63822651 985.16733432 C-834.61491009 986.44307567 -834.61491009 986.44307567 -834.59112263 987.74458957 C-834.64345595 989.69234769 -834.64345595 989.69234769 -833.43290424 990.68710971 C-821.99314842 991.91431967 -810.48292398 991.78814119 -798.99540424 991.68710971 C-795.87171073 991.66055468 -792.74807345 991.64064837 -789.62431049 991.62460971 C-788.91408237 991.61631137 -788.20385426 991.60801303 -787.47210407 991.59946322 C-785.7921385 991.59091279 -784.11204364 991.63374016 -782.43290424 991.68710971 C-778.5351054 995.58490855 -780.34410455 1007.46319574 -780.33524799 1012.85507846 C-780.33810861 1016.19498763 -780.35345387 1019.5347469 -780.37040424 1022.87460971 C-780.37543045 1024.60703029 -780.37999137 1026.33945228 -780.38407612 1028.07187533 C-780.39499022 1032.27698899 -780.41219272 1036.48203336 -780.43290424 1040.68710971 C-760.38830278 1040.5799814 -740.34374044 1040.46724012 -720.29920864 1040.34777045 C-710.99271252 1040.29243341 -701.68621258 1040.23895063 -692.37968159 1040.18979526 C-684.27048252 1040.14695931 -676.16131173 1040.10068282 -668.05215633 1040.05023116 C-663.75629206 1040.02362546 -659.46043342 1039.99877228 -655.16453648 1039.97803569 C-651.12463765 1039.95848055 -647.08479269 1039.93434017 -643.0449419 1039.90661883 C-641.55901408 1039.89724244 -640.07307442 1039.88956928 -638.58712864 1039.8836906 C-636.56467844 1039.87543951 -634.54225839 1039.8605738 -632.51984882 1039.84532809 C-631.38604345 1039.83887554 -630.25223808 1039.83242299 -629.08407497 1039.82577491 C-626.45648837 1039.8655207 -626.45648837 1039.8655207 -624.43290424 1038.68710971 C-624.10290424 1023.50710971 -623.77290424 1008.32710971 -623.43290424 992.68710971 C-619.83513081 992.62652377 -616.23735737 992.56593783 -612.53056049 992.50351596 C-609.06219479 992.44178223 -605.59386355 992.3783715 -602.1255312 992.31479526 C-599.70726785 992.27137093 -597.28897234 992.22970159 -594.87064838 992.18979526 C-591.40302028 992.13227368 -587.93555522 992.06852784 -584.46806049 992.00351596 C-583.37953281 991.98680346 -582.29100513 991.97009097 -581.16949177 991.95287204 C-580.1685297 991.93292682 -579.16756763 991.9129816 -578.13627338 991.89243197 C-577.25024937 991.87688769 -576.36422535 991.86134341 -575.45135212 991.84532809 C-573.43652883 991.90729646 -573.43652883 991.90729646 -572.43290424 990.68710971 C-572.31567133 989.18906016 -572.26566173 987.685669 -572.24345112 986.18320346 C-572.21837482 984.74666415 -572.21837482 984.74666415 -572.19279194 983.28110385 C-572.17242878 981.71863925 -572.17242878 981.71863925 -572.15165424 980.12460971 C-572.13324482 979.06298617 -572.1148354 978.00136264 -572.09586811 976.90756869 C-572.03690638 973.50080726 -571.98417523 970.09399507 -571.93290424 966.68710971 C-571.86549456 962.20783058 -571.79182572 957.72872131 -571.71415424 953.24960971 C-571.69379108 951.68714511 -571.69379108 951.68714511 -571.67301655 950.09311557 C-571.64794025 948.65657626 -571.64794025 948.65657626 -571.62235737 947.19101596 C-571.60982929 946.34353793 -571.59730122 945.4960599 -571.5843935 944.62290072 C-571.43290424 942.68710971 -571.43290424 942.68710971 -570.43290424 941.68710971 C-554.59290424 941.68710971 -538.75290424 941.68710971 -522.43290424 941.68710971 C-522.43290424 863.47710971 -522.43290424 785.26710971 -522.43290424 704.68710971 C-560.48989643 704.7219144 -598.54688862 704.75671908 -637.75712299 704.79257846 C-660.36222392 704.80698396 -682.96732128 704.82118651 -705.57242382 704.8316046 C-718.82631258 704.83772839 -732.08020127 704.84399225 -745.33408976 704.85068769 C-746.9373045 704.85149721 -748.54051923 704.85230232 -750.14373397 704.85310297 C-775.71448997 704.86590968 -801.28522611 704.88842562 -826.8559701 704.91600137 C-853.13064217 704.94428486 -879.40530326 704.96276272 -905.6799903 704.96885468 C-909.3887997 704.96971918 -913.09760906 704.97069609 -916.80641842 704.97174144 C-917.53638476 704.97194371 -918.2663511 704.97214598 -919.01843763 704.97235437 C-930.78171486 704.97590326 -942.54495816 704.9898275 -954.30822155 705.00760581 C-966.12650475 705.0252468 -977.94475123 705.03177552 -989.76304712 705.02761384 C-996.16962366 705.02568569 -1002.57610039 705.02871381 -1008.98265934 705.04472613 C-1014.84202999 705.05926448 -1020.70123318 705.06010166 -1026.56061134 705.04980639 C-1028.68585784 705.04853291 -1030.81111455 705.05238962 -1032.93634077 705.06175926 C-1035.81499925 705.07371766 -1038.69304527 705.06735908 -1041.57169342 705.05625319 C-1042.40565275 705.06413424 -1043.23961207 705.07201528 -1044.09884289 705.08013514 C-1048.65998288 705.04009943 -1051.77481902 704.73000509 -1055.43290424 701.68710971 C-1056.04090595 698.91011691 -1056.04090595 698.91011691 -1056.01640034 695.50327182 C-1056.01925037 694.22862567 -1056.02210041 692.95397952 -1056.02503681 691.64070773 C-1056.00281602 690.24861199 -1055.97990103 688.85652719 -1055.95634174 687.46445346 C-1055.94955239 686.03864486 -1055.94483015 684.61282503 -1055.94209003 683.1870029 C-1055.93141189 680.19997202 -1055.90471345 677.21368941 -1055.86503315 674.22690463 C-1055.81411954 670.39443349 -1055.78901893 666.56239206 -1055.77409649 662.72962737 C-1055.75931828 659.07867623 -1055.73408752 655.42782642 -1055.70634174 651.77695346 C-1055.70143097 651.07816514 -1055.6965202 650.37937682 -1055.69146061 649.6594131 C-1055.67521018 647.68673851 -1055.65069522 645.71413719 -1055.62577534 643.74155307 C-1055.61291492 642.61808978 -1055.60005451 641.49462649 -1055.58680439 640.33711886 C-1055.43290424 637.68710971 -1055.43290424 637.68710971 -1054.43290424 635.68710971 C-1038.26290424 635.35710971 -1022.09290424 635.02710971 -1005.43290424 634.68710971 C-1005.1435238 618.60626974 -1005.1435238 618.60626974 -1004.86478901 602.52524447 C-1004.82668415 600.51799423 -1004.78821658 598.51075083 -1004.74931049 596.50351596 C-1004.73283466 595.45063388 -1004.71635883 594.3977518 -1004.69938374 593.3129642 C-1004.67920185 592.31825107 -1004.65901997 591.32353793 -1004.63822651 590.29868197 C-1004.62268223 589.43042285 -1004.60713795 588.56216372 -1004.59112263 587.66759372 C-1004.43290424 585.68710971 -1004.43290424 585.68710971 -1003.43290424 584.68710971 C-1001.77646058 584.56420253 -1000.11491432 584.50927063 -998.45414448 584.48178744 C-997.39312016 584.46184222 -996.33209583 584.441897 -995.23891926 584.42134738 C-994.08477024 584.40463489 -992.93062122 584.38792239 -991.74149799 584.37070346 C-990.56652256 584.34992236 -989.39154713 584.32914126 -988.18096638 584.30773044 C-984.41084101 584.24210847 -980.64064342 584.18329141 -976.87040424 584.12460971 C-974.32156851 584.08143651 -971.77274021 584.03782263 -969.22391987 583.99375033 C-962.96032532 583.88641426 -956.69665823 583.78467181 -950.43290424 583.68710971 C-950.43512486 583.07545459 -950.43734547 582.46379947 -950.43963337 581.83360934 C-950.46168546 575.4914064 -950.47681052 569.14921427 -950.48783588 562.80698276 C-950.49287766 560.43718659 -950.49971089 558.06739356 -950.5083437 555.69760776 C-950.52041614 552.29956932 -950.52613395 548.90157186 -950.53056049 545.50351596 C-950.53572178 544.43686206 -950.54088306 543.37020816 -950.54620075 542.27123141 C-950.54627628 541.2902901 -950.54635181 540.30934878 -950.54642963 539.29868197 C-950.54865025 538.43042285 -950.55087086 537.56216372 -950.55315876 536.66759372 C-950.43290424 534.68710971 -950.43290424 534.68710971 -949.43290424 533.68710971 C-948.09706002 533.58195422 -946.75577519 533.54475454 -945.41582966 533.53562045 C-944.55068745 533.52727679 -943.68554523 533.51893313 -942.79418659 533.51033664 C-941.83779789 533.50615222 -940.88140919 533.5019678 -939.89603901 533.49765658 C-938.8944878 533.48936328 -937.89293659 533.48106997 -936.86103535 533.47252536 C-934.67841482 533.45508141 -932.49577511 533.43992663 -930.31312466 533.42674899 C-926.8637374 533.40579548 -923.41444652 533.37876679 -919.96511555 533.35007358 C-912.64191511 533.29025789 -905.31867033 533.23816167 -897.99540424 533.18710971 C-889.51638063 533.12796983 -881.03740439 533.06572391 -872.55846691 532.99523044 C-869.15160214 532.96857325 -865.74473284 532.9478073 -862.33782673 532.92722201 C-860.25827017 532.91062382 -858.17871577 532.8937524 -856.09916401 532.87656283 C-855.14479954 532.87237842 -854.19043507 532.868194 -853.20715046 532.86388278 C-852.33918842 532.85553912 -851.47122639 532.84719546 -850.57696247 532.83859897 C-849.82054746 532.83344523 -849.06413244 532.8282915 -848.28479576 532.8229816 C-846.33803101 532.79824276 -846.33803101 532.79824276 -844.43290424 531.68710971 C-844.40784809 530.48062778 -844.38279194 529.27414584 -844.35697651 528.03110385 C-844.26307902 523.5713531 -844.16281591 519.11176458 -844.06058979 514.6521976 C-844.01717383 512.71896786 -843.97550382 510.78569812 -843.93558979 508.85239291 C-843.87804793 506.07972769 -843.81430805 503.30726514 -843.74931049 500.53476596 C-843.732598 499.66497607 -843.71588551 498.79518619 -843.69866657 497.89903903 C-843.54677595 491.80098142 -843.54677595 491.80098142 -842.43290424 490.68710971 C-840.73552555 490.58572139 -839.03390183 490.55495636 -837.33350182 490.55123782 C-836.22154098 490.54638008 -835.10958014 490.54152233 -833.96392351 490.53651738 C-832.72698809 490.53622139 -831.49005266 490.53592541 -830.21563435 490.53562045 C-828.2624896 490.52927183 -828.2624896 490.52927183 -826.26988739 490.52279496 C-822.63890674 490.51111039 -819.00793868 490.50566034 -815.37694299 490.50116014 C-811.4675375 490.49522828 -807.55814891 490.48355647 -803.64875507 490.47252536 C-796.869443 490.45414631 -790.09013056 490.43931273 -783.31080532 490.42674899 C-773.50674419 490.40848793 -763.70270715 490.38382264 -753.89866506 490.35737509 C-737.9910592 490.31454503 -722.0834467 490.2754389 -706.17582417 490.2393558 C-705.22290818 490.237193 -704.26999219 490.2350302 -703.28819995 490.23280185 C-696.52393494 490.21747337 -689.75966962 490.20227697 -682.99540424 490.18710971 C-675.27038776 490.16978701 -667.54537142 490.15240242 -659.82035542 490.13486362 C-658.86889736 490.13270475 -657.9174393 490.13054588 -656.93714917 490.12832159 C-641.09206443 490.09224823 -625.24699174 490.05229693 -609.4019236 490.00956082 C-599.61859995 489.98336391 -589.83528002 489.96071485 -580.05193805 489.94257724 C-573.35202582 489.92993615 -566.65212791 489.91381984 -559.9522304 489.8949281 C-556.08169089 489.88414207 -552.21116531 489.87503352 -548.34061337 489.87023234 C-544.15276909 489.86500794 -539.96498321 489.85219503 -535.77715778 489.83859897 C-534.54245308 489.83830298 -533.30774838 489.83800699 -532.03562838 489.83770204 C-530.92105979 489.83284429 -529.8064912 489.82798655 -528.65814781 489.8229816 C-527.69040304 489.82086563 -526.72265827 489.81874966 -525.7255879 489.81656957 C-523.4031365 489.83725812 -523.4031365 489.83725812 -521.43290424 488.68710971 C-521.4286723 487.46144321 -521.42444036 486.23577672 -521.42008018 484.97296882 C-521.3195048 455.90822269 -521.21381487 426.84349879 -521.1017873 397.77879471 C-521.08801696 394.2050203 -521.07428998 390.63124572 -521.06058979 387.05747104 C-521.05786149 386.34596703 -521.05513318 385.63446303 -521.0523222 384.90139829 C-521.00819177 373.3657997 -520.96757728 361.83019126 -520.92825163 350.2945754 C-520.88785184 338.46671564 -520.84369808 326.63887424 -520.79602569 314.81104153 C-520.76934265 308.16385763 -520.74454477 301.51667498 -520.72383022 294.8694694 C-520.70430332 288.62087775 -520.68017161 282.37232128 -520.65241337 276.12376094 C-520.64302195 273.82306818 -520.63535426 271.52236768 -520.62948513 269.22166324 C-520.62125933 266.09532466 -520.60699289 262.96907231 -520.59112263 259.84276462 C-520.59014452 258.91963176 -520.58916641 257.99649891 -520.58815867 257.04539233 C-520.54702545 250.80123092 -520.54702545 250.80123092 -519.43290424 249.68710971 C-504.48102742 248.44111997 -489.43660749 248.68710971 -474.43290424 248.68710971 C-474.10290424 217.33710971 -473.77290424 185.98710971 -473.43290424 153.68710971 C-470.42923911 152.685888 -468.45550831 152.5659896 -465.31889057 152.57358432 C-464.27803806 152.57365985 -463.23718555 152.57373538 -462.16479206 152.5738132 C-461.04283939 152.57897449 -459.92088673 152.58413577 -458.76493549 152.58945346 C-457.614986 152.59086841 -456.46503651 152.59228335 -455.28024006 152.59374118 C-451.60193516 152.59934542 -447.92369079 152.61189867 -444.24540424 152.62460971 C-441.75386866 152.62962416 -439.26233213 152.63418716 -436.77079487 152.63828158 C-430.65814395 152.64931623 -424.54552842 152.66605852 -418.43290424 152.68710971 C-418.43870502 151.4318851 -418.44450581 150.17666049 -418.45048237 148.88339877 C-418.48510197 138.05412097 -418.34147875 127.2588129 -417.93290424 116.43710971 C-417.88440205 115.08295465 -417.83622496 113.7287879 -417.78837299 112.37460971 C-417.67304102 109.14531456 -417.55456029 105.91617167 -417.43290424 102.68710971 C-415.93062275 102.64952548 -415.93062275 102.64952548 -414.39799213 102.61118197 C-410.59387894 102.51524418 -406.78987193 102.41552102 -402.98588276 102.31479526 C-401.35602564 102.27213553 -399.72614316 102.23043102 -398.09623432 102.18979526 C-386.85749614 101.90874006 -375.6514643 101.41932132 -364.43290424 100.68710971 C-364.44313618 99.63249545 -364.45336811 98.57788119 -364.4639101 97.49130893 C-364.59314343 81.8811257 -363.97285647 66.28541059 -363.43290424 50.68710971 C-360.62758192 49.89191545 -358.14381299 49.56312136 -355.23142719 49.56685519 C-354.40134144 49.56548053 -353.57125568 49.56410586 -352.71601582 49.56268954 C-351.81402454 49.56628482 -350.91203327 49.56988009 -349.98270893 49.57358432 C-349.02627491 49.57343829 -348.06984089 49.57329226 -347.08442402 49.57314181 C-343.92451932 49.57383822 -340.76467364 49.58161797 -337.60477924 49.58945346 C-335.41331229 49.5913186 -333.22184491 49.59274205 -331.03037739 49.59374118 C-325.26329617 49.59755877 -319.49624015 49.60738262 -313.72916889 49.61844516 C-306.80917093 49.63047434 -299.88916455 49.63506513 -292.96915913 49.64089847 C-282.45705664 49.65059474 -271.94500944 49.66975664 -261.43290424 49.68710971 C-261.10290424 33.84710971 -260.77290424 18.00710971 -260.43290424 1.68710971 C-257.13861007 0.03996262 -253.47303867 0.52924072 -249.85099506 0.5221622 C-248.95099199 0.51651866 -248.05098891 0.51087511 -247.12371302 0.50506055 C-244.08680829 0.48726771 -241.04991978 0.47661681 -238.01298237 0.4659183 C-235.84081022 0.45470434 -233.6686402 0.44307217 -231.49647236 0.43105197 C-225.56314927 0.39959193 -219.62981469 0.37451245 -213.69645596 0.35085511 C-208.70630295 0.33038818 -203.71616636 0.3068478 -198.72602701 0.28331792 C-186.20624398 0.22434202 -173.6864422 0.17145491 -161.16662139 0.12134881 C-149.77972921 0.07559265 -138.39289617 0.0213448 -127.00605536 -0.03592861 C-116.56614755 -0.08816035 -106.12622442 -0.13527191 -95.68627596 -0.17861617 C-89.49056013 -0.20437353 -83.29486497 -0.23173332 -77.09917927 -0.26398969 C-51.39709826 -0.39540175 -25.69989644 -0.37519599 0 0 Z " fill="#FCFCFD" transform="translate(1130.4329042434692,16.31289029121399)"/>
<path d="M0 0 C5.56222976 0.00570026 11.12441167 0.00231895 16.68663979 -0.0034523 C60.71058455 -0.04197623 60.71058455 -0.04197623 81.11450195 1.13037109 C81.11450195 1.46037109 81.11450195 1.79037109 81.11450195 2.13037109 C72.46345973 2.26253891 63.81239436 2.39302966 55.16129684 2.52152252 C51.14194269 2.58127076 47.12259801 2.64154397 43.10327148 2.703125 C16.20738724 3.11446763 -10.64024685 3.13645005 -37.53607178 2.66680908 C-41.08351567 2.60523906 -44.63099261 2.54563466 -48.1784668 2.48583984 C-55.08084312 2.36921891 -61.98318199 2.25050542 -68.88549805 2.13037109 C-68.88549805 1.80037109 -68.88549805 1.47037109 -68.88549805 1.13037109 C-45.93316664 -0.11674488 -22.97874526 -0.02386703 0 0 Z " fill="#DBDBDE" transform="translate(435.885498046875,1208.86962890625)"/>
<path d="M0 0 C0.99 0.33 1.98 0.66 3 1 C3 21.13 3 41.26 3 62 C2.01 61.67 1.02 61.34 0 61 C0 40.87 0 20.74 0 0 Z " fill="#F6F5FB" transform="translate(75,655)"/>
<path d="M0 0 C12.87 0 25.74 0 39 0 C35.19358759 2.53760827 32.03139645 2.34977475 27.61328125 2.4140625 C26.38776802 2.44311172 26.38776802 2.44311172 25.13749695 2.4727478 C22.52927066 2.53250352 19.92100014 2.57891258 17.3125 2.625 C15.5436006 2.6631835 13.77471972 2.70223546 12.00585938 2.7421875 C7.67072341 2.83820168 3.3355004 2.92224735 -1 3 C-0.67 2.01 -0.34 1.02 0 0 Z " fill="#EBEEF3" transform="translate(793,961)"/>
<path d="M0 0 C0.33 0 0.66 0 1 0 C1 13.2 1 26.4 1 40 C0.67 40 0.34 40 0 40 C-0.495 32.575 -0.495 32.575 -1 25 C-1.33 25 -1.66 25 -2 25 C-2.24911914 16.41922945 -1.69882188 8.41826913 0 0 Z " fill="#F5F4F8" transform="translate(1101,172)"/>
<path d="M0 0 C3.10408807 -0.05807043 6.2080364 -0.09361914 9.3125 -0.125 C10.19357422 -0.14175781 11.07464844 -0.15851562 11.98242188 -0.17578125 C12.82998047 -0.18222656 13.67753906 -0.18867187 14.55078125 -0.1953125 C15.72120972 -0.21102295 15.72120972 -0.21102295 16.9152832 -0.22705078 C19 0 19 0 22 2 C15.4 2.33 8.8 2.66 2 3 C1.67 3.66 1.34 4.32 1 5 C0.34 5 -0.32 5 -1 5 C-0.67 3.35 -0.34 1.7 0 0 Z " fill="#E0DFE4" transform="translate(1322,574)"/>
<path d="M0 0 C0.33 0 0.66 0 1 0 C1 1.65 1 3.3 1 5 C9.25 5.33 17.5 5.66 26 6 C26 6.33 26 6.66 26 7 C17.42 7.33 8.84 7.66 0 8 C0 5.36 0 2.72 0 0 Z " fill="#F5F3F8" transform="translate(25,951)"/>
<path d="M0 0 C0.33 0 0.66 0 1 0 C1 6.27 1 12.54 1 19 C0.67 19 0.34 19 0 19 C-0.33 20.98 -0.66 22.96 -1 25 C-1.33 25 -1.66 25 -2 25 C-2.02685095 22.52076199 -2.04676547 20.0418116 -2.0625 17.5625 C-2.07506836 16.50192383 -2.07506836 16.50192383 -2.08789062 15.41992188 C-2.09653588 13.61306441 -2.05220011 11.80612397 -2 10 C-1.67 9.67 -1.34 9.34 -1 9 C-0.76807135 7.48530552 -0.58784762 5.96245438 -0.4375 4.4375 C-0.35371094 3.61121094 -0.26992187 2.78492188 -0.18359375 1.93359375 C-0.12300781 1.29550781 -0.06242187 0.65742188 0 0 Z " fill="#F4F4F6" transform="translate(1152,445)"/>
<path d="M0 0 C0.99 0.33 1.98 0.66 3 1 C3 9.25 3 17.5 3 26 C2.67 26 2.34 26 2 26 C1.97494385 25.31897217 1.9498877 24.63794434 1.92407227 23.9362793 C1.80809048 20.85316245 1.68537384 17.77034954 1.5625 14.6875 C1.52318359 13.61564453 1.48386719 12.54378906 1.44335938 11.43945312 C1.40146484 10.41142578 1.35957031 9.38339844 1.31640625 8.32421875 C1.26141968 6.9024231 1.26141968 6.9024231 1.20532227 5.4519043 C1.08569813 2.863829 1.08569813 2.863829 0 0 Z " fill="#EDEBF6" transform="translate(75,655)"/>
<path d="M0 0 C4.29 0 8.58 0 13 0 C9.3750203 1.81248985 7.62740416 2.31888915 3.75 2.625 C2.85796875 2.69976563 1.9659375 2.77453125 1.046875 2.8515625 C0.37140625 2.90054688 -0.3040625 2.94953125 -1 3 C-0.67 2.01 -0.34 1.02 0 0 Z " fill="#DFDFE4" transform="translate(793,961)"/>
</svg>
