<?xml version="1.0" encoding="UTF-8"?>
<svg xmlns="http://www.w3.org/2000/svg" xmlns:xlink="http://www.w3.org/1999/xlink" width="592px" height="502px" viewBox="0 0 592 502" version="1.1">
<g id="surface1">
<path style=" stroke:none;fill-rule:nonzero;fill:rgb(98.823529%,98.823529%,99.215686%);fill-opacity:1;" d="M 463.445312 6.691406 C 464.515625 6.707031 465.585938 6.71875 466.65625 6.734375 C 468.136719 6.75 469.613281 6.777344 471.09375 6.800781 C 471.757812 6.808594 471.757812 6.808594 472.433594 6.816406 C 472.835938 6.824219 473.242188 6.832031 473.65625 6.839844 C 474.007812 6.847656 474.359375 6.851562 474.722656 6.859375 C 475.566406 6.972656 475.566406 6.972656 476.386719 7.792969 C 476.503906 8.605469 476.503906 8.605469 476.519531 9.617188 C 476.527344 9.996094 476.535156 10.371094 476.542969 10.761719 C 476.546875 11.171875 476.550781 11.578125 476.558594 12 C 476.566406 12.417969 476.574219 12.835938 476.582031 13.265625 C 476.605469 14.601562 476.625 15.9375 476.644531 17.277344 C 476.660156 18.183594 476.675781 19.085938 476.691406 19.992188 C 476.730469 22.214844 476.765625 24.4375 476.796875 26.660156 C 477.925781 27.035156 478.570312 27.117188 479.726562 27.113281 C 480.070312 27.113281 480.417969 27.109375 480.773438 27.109375 C 481.152344 27.109375 481.527344 27.105469 481.917969 27.101562 C 482.515625 27.101562 482.515625 27.101562 483.125 27.097656 C 483.992188 27.09375 484.859375 27.089844 485.726562 27.085938 C 487.09375 27.078125 488.464844 27.074219 489.832031 27.070312 C 493.726562 27.0625 497.621094 27.046875 501.515625 27.027344 C 503.894531 27.019531 506.277344 27.011719 508.65625 27.007812 C 509.566406 27.003906 510.472656 27 511.382812 26.996094 C 512.652344 26.988281 513.917969 26.984375 515.1875 26.980469 C 515.566406 26.976562 515.945312 26.976562 516.335938 26.972656 C 516.851562 26.972656 516.851562 26.972656 517.378906 26.972656 C 517.828125 26.972656 517.828125 26.972656 518.289062 26.96875 C 519.023438 27.070312 519.023438 27.070312 519.84375 27.890625 C 520.363281 30.523438 520.332031 33.300781 520.382812 35.980469 C 520.398438 36.515625 520.398438 36.515625 520.410156 37.066406 C 520.4375 38.191406 520.460938 39.320312 520.484375 40.449219 C 520.503906 41.222656 520.519531 41.992188 520.539062 42.765625 C 520.582031 44.640625 520.625 46.519531 520.664062 48.394531 C 520.925781 48.398438 521.1875 48.402344 521.457031 48.410156 C 524.164062 48.453125 526.867188 48.5 529.574219 48.546875 C 530.585938 48.566406 531.597656 48.582031 532.609375 48.597656 C 534.058594 48.621094 535.507812 48.648438 536.960938 48.675781 C 537.414062 48.683594 537.871094 48.691406 538.339844 48.695312 C 538.757812 48.703125 539.175781 48.714844 539.609375 48.722656 C 540.164062 48.730469 540.164062 48.730469 540.730469 48.742188 C 541.574219 48.804688 541.574219 48.804688 541.984375 49.214844 C 542.035156 49.882812 542.054688 50.550781 542.066406 51.21875 C 542.074219 51.648438 542.082031 52.074219 542.09375 52.515625 C 542.097656 52.976562 542.105469 53.441406 542.113281 53.921875 C 542.125 54.628906 542.125 54.628906 542.140625 55.355469 C 542.164062 56.871094 542.191406 58.386719 542.214844 59.90625 C 542.230469 60.929688 542.25 61.957031 542.269531 62.980469 C 542.3125 65.5 542.351562 68.023438 542.394531 70.542969 C 542.65625 70.546875 542.914062 70.550781 543.183594 70.554688 C 545.890625 70.597656 548.597656 70.648438 551.304688 70.695312 C 552.316406 70.714844 553.328125 70.730469 554.335938 70.746094 C 555.789062 70.769531 557.238281 70.796875 558.6875 70.824219 C 559.144531 70.828125 559.597656 70.835938 560.066406 70.84375 C 560.484375 70.851562 560.90625 70.859375 561.335938 70.867188 C 561.707031 70.875 562.078125 70.882812 562.457031 70.886719 C 563.300781 70.953125 563.300781 70.953125 563.710938 71.363281 C 563.761719 72.101562 563.785156 72.839844 563.796875 73.578125 C 563.804688 74.054688 563.8125 74.53125 563.820312 75.023438 C 563.828125 75.546875 563.835938 76.070312 563.839844 76.609375 C 563.851562 77.15625 563.859375 77.703125 563.867188 78.253906 C 563.886719 79.414062 563.902344 80.574219 563.917969 81.734375 C 563.9375 83.179688 563.960938 84.625 563.984375 86.074219 C 564.109375 94.019531 564.144531 101.964844 564.121094 109.914062 C 564.367188 109.917969 564.609375 109.921875 564.863281 109.929688 C 567.402344 109.972656 569.945312 110.019531 572.484375 110.066406 C 573.433594 110.085938 574.382812 110.101562 575.332031 110.117188 C 576.691406 110.144531 578.054688 110.167969 579.414062 110.195312 C 579.84375 110.203125 580.269531 110.210938 580.707031 110.214844 C 581.101562 110.222656 581.496094 110.234375 581.902344 110.242188 C 582.25 110.246094 582.597656 110.253906 582.953125 110.261719 C 583.800781 110.324219 583.800781 110.324219 584.621094 110.734375 C 584.628906 121.421875 584.636719 132.109375 584.640625 142.796875 C 584.644531 147.761719 584.648438 152.722656 584.652344 157.683594 C 584.65625 162.007812 584.65625 166.332031 584.660156 170.65625 C 584.660156 172.945312 584.660156 175.238281 584.664062 177.527344 C 584.667969 179.679688 584.667969 181.832031 584.667969 183.988281 C 584.667969 184.78125 584.667969 185.574219 584.667969 186.367188 C 584.671875 187.441406 584.671875 188.519531 584.667969 189.597656 C 584.671875 189.917969 584.671875 190.234375 584.671875 190.5625 C 584.667969 192.714844 584.667969 192.714844 584.210938 193.171875 C 581.773438 193.640625 579.371094 193.640625 576.898438 193.636719 C 576.234375 193.636719 576.234375 193.636719 575.554688 193.640625 C 574.070312 193.640625 572.589844 193.640625 571.105469 193.640625 C 570.042969 193.640625 568.976562 193.644531 567.914062 193.644531 C 565.324219 193.648438 562.738281 193.648438 560.148438 193.648438 C 558.042969 193.652344 555.941406 193.652344 553.839844 193.652344 C 547.875 193.65625 541.910156 193.65625 535.945312 193.65625 C 535.625 193.65625 535.304688 193.65625 534.972656 193.65625 C 534.652344 193.65625 534.328125 193.65625 533.996094 193.65625 C 528.777344 193.65625 523.558594 193.660156 518.339844 193.667969 C 512.980469 193.671875 507.621094 193.675781 502.265625 193.675781 C 499.253906 193.675781 496.246094 193.675781 493.238281 193.679688 C 490.410156 193.683594 487.585938 193.683594 484.757812 193.683594 C 483.71875 193.679688 482.679688 193.683594 481.640625 193.683594 C 480.222656 193.6875 478.808594 193.6875 477.394531 193.683594 C 476.980469 193.683594 476.566406 193.6875 476.140625 193.691406 C 475.761719 193.6875 475.382812 193.6875 474.992188 193.683594 C 474.664062 193.683594 474.339844 193.683594 474.003906 193.683594 C 473.003906 193.570312 472.335938 193.257812 471.46875 192.761719 C 471.363281 183.816406 471.363281 183.816406 471.878906 180.867188 C 472.964844 180.324219 473.828125 180.378906 475.042969 180.34375 C 475.523438 180.328125 476.003906 180.3125 476.5 180.296875 C 477.011719 180.28125 477.523438 180.265625 478.054688 180.253906 C 482.425781 180.113281 486.78125 179.921875 491.148438 179.636719 C 491.46875 171.335938 491.632812 163.046875 491.679688 154.738281 C 491.691406 153.199219 491.703125 151.65625 491.710938 150.113281 C 491.734375 147.21875 491.75 144.320312 491.769531 141.421875 C 491.789062 138.113281 491.8125 134.804688 491.835938 131.496094 C 491.878906 124.714844 491.925781 117.929688 491.964844 111.144531 C 491.742188 111.140625 491.519531 111.136719 491.289062 111.132812 C 488.960938 111.089844 486.632812 111.042969 484.304688 110.992188 C 483.433594 110.976562 482.566406 110.957031 481.695312 110.941406 C 480.449219 110.917969 479.203125 110.890625 477.953125 110.863281 C 477.5625 110.859375 477.171875 110.851562 476.769531 110.84375 C 476.410156 110.835938 476.050781 110.828125 475.675781 110.820312 C 475.359375 110.8125 475.039062 110.808594 474.710938 110.800781 C 473.929688 110.734375 473.929688 110.734375 473.109375 110.324219 C 473.109375 109.957031 473.109375 109.957031 473.109375 109.582031 C 473.121094 107.03125 473.125 104.484375 473.128906 101.9375 C 473.132812 100.984375 473.136719 100.03125 473.140625 99.082031 C 473.144531 97.714844 473.144531 96.351562 473.148438 94.984375 C 473.148438 94.558594 473.152344 94.128906 473.15625 93.6875 C 473.15625 93.09375 473.15625 93.09375 473.15625 92.492188 C 473.15625 91.96875 473.15625 91.96875 473.15625 91.4375 C 473.195312 90.636719 473.195312 90.636719 472.699219 90.230469 C 472.019531 90.179688 471.34375 90.160156 470.664062 90.152344 C 470.230469 90.144531 469.796875 90.136719 469.347656 90.128906 C 468.878906 90.125 468.40625 90.121094 467.917969 90.113281 C 467.199219 90.101562 467.199219 90.101562 466.460938 90.089844 C 464.917969 90.066406 463.375 90.042969 461.832031 90.023438 C 459.804688 89.996094 457.777344 89.964844 455.75 89.933594 C 455.277344 89.929688 454.804688 89.921875 454.316406 89.917969 C 453.882812 89.910156 453.449219 89.902344 453.003906 89.894531 C 452.621094 89.890625 452.238281 89.886719 451.839844 89.878906 C 450.96875 89.820312 450.96875 89.820312 450.558594 89.410156 C 450.425781 83.046875 450.289062 76.6875 450.148438 70.132812 C 429.316406 70.132812 408.480469 70.132812 387.015625 70.132812 C 386.546875 71.070312 386.546875 71.605469 386.539062 72.644531 C 386.53125 73.167969 386.53125 73.167969 386.527344 73.703125 C 386.523438 74.082031 386.519531 74.457031 386.515625 74.847656 C 386.507812 75.644531 386.492188 76.4375 386.480469 77.234375 C 386.464844 78.492188 386.449219 79.75 386.4375 81.003906 C 386.429688 82.21875 386.410156 83.429688 386.390625 84.640625 C 386.386719 85.015625 386.386719 85.394531 386.386719 85.78125 C 386.378906 86.132812 386.371094 86.480469 386.363281 86.84375 C 386.359375 87.152344 386.359375 87.457031 386.355469 87.777344 C 386.144531 88.835938 385.839844 89.191406 384.964844 89.820312 C 384.070312 89.980469 384.070312 89.980469 383.019531 89.996094 C 382.625 90.003906 382.230469 90.011719 381.824219 90.019531 C 381.398438 90.023438 380.976562 90.027344 380.539062 90.027344 C 380.105469 90.035156 379.667969 90.042969 379.222656 90.050781 C 377.828125 90.074219 376.4375 90.085938 375.046875 90.101562 C 374.105469 90.113281 373.164062 90.128906 372.21875 90.144531 C 369.910156 90.179688 367.597656 90.207031 365.285156 90.230469 C 365.28125 90.46875 365.277344 90.707031 365.273438 90.953125 C 365.238281 93.441406 365.199219 95.929688 365.15625 98.417969 C 365.140625 99.347656 365.125 100.277344 365.113281 101.207031 C 365.09375 102.542969 365.070312 103.875 365.046875 105.207031 C 365.039062 105.625 365.035156 106.042969 365.03125 106.472656 C 365.023438 106.859375 365.015625 107.246094 365.007812 107.640625 C 365 107.984375 364.996094 108.324219 364.988281 108.675781 C 364.875 109.503906 364.875 109.503906 364.054688 110.324219 C 363.242188 110.4375 363.242188 110.4375 362.230469 110.457031 C 361.664062 110.46875 361.664062 110.46875 361.085938 110.480469 C 360.679688 110.484375 360.269531 110.488281 359.851562 110.496094 C 359.433594 110.503906 359.015625 110.511719 358.585938 110.519531 C 357.25 110.542969 355.910156 110.5625 354.574219 110.582031 C 353.671875 110.597656 352.765625 110.613281 351.859375 110.628906 C 349.640625 110.667969 347.417969 110.703125 345.195312 110.734375 C 344.5 112.125 344.730469 113.710938 344.734375 115.242188 C 344.734375 115.628906 344.734375 116.015625 344.734375 116.414062 C 344.730469 117.71875 344.730469 119.023438 344.734375 120.324219 C 344.734375 121.257812 344.730469 122.1875 344.730469 123.121094 C 344.730469 125.65625 344.730469 128.191406 344.730469 130.730469 C 344.734375 133.378906 344.730469 136.027344 344.730469 138.675781 C 344.730469 143.414062 344.730469 148.148438 344.734375 152.882812 C 344.734375 157.179688 344.734375 161.476562 344.734375 165.769531 C 344.730469 170.753906 344.730469 175.742188 344.730469 180.726562 C 344.730469 183.363281 344.730469 186.003906 344.730469 188.644531 C 344.730469 191.128906 344.730469 193.609375 344.734375 196.089844 C 344.734375 197.003906 344.734375 197.917969 344.730469 198.828125 C 344.730469 200.070312 344.734375 201.3125 344.734375 202.554688 C 344.734375 202.921875 344.734375 203.285156 344.730469 203.660156 C 344.738281 205.050781 344.753906 206.199219 345.195312 207.527344 C 416.902344 207.660156 488.605469 207.796875 562.480469 207.9375 C 562.984375 209.445312 562.949219 210.839844 562.945312 212.410156 C 562.945312 212.734375 562.949219 213.0625 562.949219 213.394531 C 562.949219 214.457031 562.945312 215.515625 562.941406 216.574219 C 562.941406 216.933594 562.941406 217.292969 562.941406 217.660156 C 562.933594 223.722656 562.796875 229.769531 562.480469 235.824219 C 555.921875 236.117188 549.363281 236.386719 542.804688 236.644531 C 542.445312 241.003906 542.277344 245.347656 542.164062 249.71875 C 542.144531 250.363281 542.128906 251.007812 542.109375 251.65625 C 542.066406 253.214844 542.023438 254.773438 541.984375 256.332031 C 540.707031 257.078125 539.785156 257.253906 538.3125 257.246094 C 537.910156 257.246094 537.507812 257.246094 537.09375 257.246094 C 536.664062 257.242188 536.234375 257.238281 535.789062 257.230469 C 535.34375 257.230469 534.902344 257.230469 534.445312 257.230469 C 533.027344 257.222656 531.613281 257.214844 530.195312 257.203125 C 529.234375 257.199219 528.277344 257.195312 527.316406 257.191406 C 524.960938 257.183594 522.609375 257.167969 520.253906 257.152344 C 520.257812 257.601562 520.257812 258.050781 520.261719 258.511719 C 520.269531 260.195312 520.273438 261.878906 520.277344 263.5625 C 520.28125 264.289062 520.28125 265.011719 520.285156 265.738281 C 520.328125 274.464844 520.328125 274.464844 519.84375 277.25 C 518.949219 278.144531 516.8125 277.722656 515.570312 277.722656 C 514.960938 277.726562 514.960938 277.726562 514.339844 277.730469 C 513.453125 277.734375 512.570312 277.738281 511.683594 277.738281 C 510.285156 277.746094 508.886719 277.753906 507.488281 277.761719 C 503.511719 277.789062 499.53125 277.808594 495.554688 277.824219 C 493.125 277.832031 490.695312 277.847656 488.265625 277.863281 C 487.335938 277.871094 486.40625 277.875 485.480469 277.875 C 484.183594 277.878906 482.886719 277.886719 481.589844 277.898438 C 481.203125 277.898438 480.816406 277.894531 480.421875 277.894531 C 480.066406 277.898438 479.714844 277.902344 479.351562 277.90625 C 479.042969 277.910156 478.738281 277.910156 478.421875 277.910156 C 477.378906 278.117188 477.015625 278.449219 476.386719 279.300781 C 476.296875 280.429688 476.273438 281.464844 476.3125 282.589844 C 476.316406 282.914062 476.320312 283.234375 476.324219 283.566406 C 476.34375 284.945312 476.378906 286.320312 476.414062 287.699219 C 476.433594 288.707031 476.449219 289.710938 476.464844 290.71875 C 476.476562 291.027344 476.484375 291.339844 476.496094 291.660156 C 476.511719 292.90625 476.5 293.855469 475.902344 294.964844 C 474.902344 295.957031 474.363281 295.910156 472.96875 295.914062 C 472.515625 295.917969 472.058594 295.921875 471.585938 295.925781 C 471.082031 295.921875 470.578125 295.921875 470.0625 295.917969 C 469.527344 295.921875 468.992188 295.921875 468.445312 295.925781 C 466.960938 295.933594 465.476562 295.933594 463.992188 295.929688 C 462.394531 295.925781 460.796875 295.933594 459.195312 295.941406 C 456.425781 295.949219 453.65625 295.953125 450.882812 295.953125 C 446.878906 295.953125 442.871094 295.960938 438.863281 295.972656 C 432.363281 295.988281 425.863281 296 419.363281 296.003906 C 413.050781 296.007812 406.734375 296.015625 400.417969 296.027344 C 399.835938 296.03125 399.835938 296.03125 399.242188 296.03125 C 397.289062 296.035156 395.335938 296.039062 393.386719 296.042969 C 377.183594 296.078125 360.984375 296.101562 344.785156 296.113281 C 344.5 299.128906 344.320312 302.109375 344.339844 305.136719 C 344.34375 305.519531 344.34375 305.902344 344.34375 306.296875 C 344.347656 307.558594 344.355469 308.820312 344.363281 310.082031 C 344.367188 310.996094 344.371094 311.90625 344.371094 312.820312 C 344.378906 314.773438 344.386719 316.730469 344.394531 318.683594 C 344.410156 321.773438 344.417969 324.863281 344.425781 327.953125 C 344.425781 328.476562 344.429688 329 344.429688 329.535156 C 344.433594 330.601562 344.433594 331.671875 344.4375 332.738281 C 344.445312 335.472656 344.449219 338.207031 344.457031 340.941406 C 344.460938 341.214844 344.460938 341.488281 344.460938 341.769531 C 344.472656 346.226562 344.492188 350.679688 344.511719 355.132812 C 344.535156 359.714844 344.546875 364.292969 344.554688 368.875 C 344.558594 371.441406 344.5625 374.011719 344.582031 376.582031 C 344.597656 378.992188 344.601562 381.402344 344.601562 383.8125 C 344.601562 384.699219 344.605469 385.585938 344.617188 386.472656 C 344.625 387.679688 344.625 388.886719 344.621094 390.089844 C 344.625 390.445312 344.632812 390.800781 344.640625 391.164062 C 344.628906 392.140625 344.628906 392.140625 344.375 393.726562 C 343.167969 394.808594 342.152344 395.109375 340.550781 395.09375 C 340.046875 395.09375 340.046875 395.09375 339.53125 395.09375 C 339.175781 395.089844 338.816406 395.082031 338.449219 395.074219 C 338.078125 395.074219 337.710938 395.074219 337.328125 395.070312 C 336.148438 395.0625 334.972656 395.046875 333.792969 395.03125 C 332.992188 395.027344 332.195312 395.019531 331.394531 395.015625 C 329.433594 395.003906 327.476562 394.980469 325.519531 394.957031 C 325.515625 395.425781 325.511719 395.898438 325.507812 396.382812 C 325.476562 400.8125 325.441406 405.242188 325.398438 409.671875 C 325.378906 411.949219 325.359375 414.226562 325.34375 416.503906 C 325.328125 418.703125 325.3125 420.898438 325.289062 423.09375 C 325.28125 423.933594 325.277344 424.773438 325.269531 425.613281 C 325.265625 426.785156 325.25 427.957031 325.238281 429.132812 C 325.238281 429.65625 325.238281 429.65625 325.234375 430.191406 C 325.203125 432.59375 325.203125 432.59375 324.289062 433.507812 C 323.347656 433.621094 323.347656 433.621094 322.164062 433.640625 C 321.71875 433.648438 321.277344 433.65625 320.820312 433.664062 C 320.339844 433.667969 319.859375 433.671875 319.363281 433.679688 C 318.875 433.6875 318.382812 433.695312 317.878906 433.703125 C 316.308594 433.726562 314.738281 433.746094 313.167969 433.765625 C 312.105469 433.78125 311.042969 433.796875 309.980469 433.8125 C 307.371094 433.851562 304.757812 433.886719 302.148438 433.917969 C 302.152344 434.175781 302.152344 434.429688 302.152344 434.695312 C 302.160156 437.347656 302.167969 440.003906 302.171875 442.65625 C 302.175781 443.648438 302.175781 444.640625 302.179688 445.632812 C 302.183594 447.054688 302.1875 448.476562 302.191406 449.898438 C 302.191406 450.34375 302.195312 450.792969 302.195312 451.25 C 302.195312 451.664062 302.195312 452.074219 302.195312 452.496094 C 302.195312 452.859375 302.199219 453.222656 302.199219 453.597656 C 302.148438 454.425781 302.148438 454.425781 301.738281 454.835938 C 301.058594 454.886719 300.378906 454.90625 299.699219 454.917969 C 299.261719 454.925781 298.828125 454.933594 298.378906 454.945312 C 297.90625 454.949219 297.433594 454.957031 296.945312 454.964844 C 296.222656 454.976562 296.222656 454.976562 295.488281 454.992188 C 293.941406 455.015625 292.394531 455.042969 290.851562 455.066406 C 289.804688 455.082031 288.761719 455.101562 287.714844 455.121094 C 285.148438 455.164062 282.578125 455.207031 280.011719 455.246094 C 280.015625 455.488281 280.015625 455.734375 280.019531 455.984375 C 280.046875 458.519531 280.066406 461.054688 280.078125 463.589844 C 280.085938 464.535156 280.09375 465.480469 280.105469 466.425781 C 280.117188 467.785156 280.125 469.144531 280.132812 470.503906 C 280.136719 470.929688 280.144531 471.351562 280.152344 471.789062 C 280.152344 472.183594 280.152344 472.578125 280.152344 472.984375 C 280.152344 473.332031 280.15625 473.679688 280.160156 474.035156 C 279.972656 475.160156 279.664062 475.457031 278.78125 476.160156 C 277.984375 476.320312 277.984375 476.320312 277.0625 476.324219 C 276.710938 476.332031 276.359375 476.335938 276 476.339844 C 275.617188 476.339844 275.234375 476.339844 274.839844 476.339844 C 274.4375 476.34375 274.03125 476.347656 273.617188 476.351562 C 272.277344 476.363281 270.941406 476.367188 269.601562 476.371094 C 268.675781 476.378906 267.75 476.386719 266.824219 476.394531 C 264.382812 476.414062 261.941406 476.425781 259.5 476.4375 C 257.011719 476.449219 254.523438 476.46875 252.03125 476.484375 C 247.148438 476.523438 242.261719 476.550781 237.375 476.570312 C 237.371094 476.8125 237.367188 477.054688 237.359375 477.300781 C 237.316406 479.796875 237.269531 482.289062 237.222656 484.785156 C 237.203125 485.71875 237.1875 486.648438 237.171875 487.582031 C 237.144531 488.917969 237.121094 490.253906 237.09375 491.589844 C 237.085938 492.011719 237.078125 492.429688 237.074219 492.863281 C 237.066406 493.25 237.054688 493.632812 237.046875 494.03125 C 237.039062 494.542969 237.039062 494.542969 237.027344 495.066406 C 236.964844 495.847656 236.964844 495.847656 236.554688 496.257812 C 235.300781 496.320312 234.054688 496.359375 232.800781 496.378906 C 232.410156 496.386719 232.015625 496.394531 231.613281 496.402344 C 230.304688 496.429688 229 496.449219 227.695312 496.472656 C 226.777344 496.488281 225.863281 496.507812 224.945312 496.523438 C 222.117188 496.574219 219.292969 496.621094 216.464844 496.667969 C 215.832031 496.679688 215.832031 496.679688 215.1875 496.6875 C 209.15625 496.785156 203.125 496.859375 197.09375 496.925781 C 196.664062 496.929688 196.234375 496.933594 195.792969 496.9375 C 176.625 497.140625 157.464844 496.996094 138.296875 496.683594 C 137.375 496.667969 136.453125 496.65625 135.53125 496.640625 C 132.136719 496.585938 128.742188 496.527344 125.347656 496.464844 C 124.757812 496.453125 124.757812 496.453125 124.152344 496.441406 C 123.097656 496.421875 122.042969 496.398438 120.988281 496.375 C 120.6875 496.367188 120.390625 496.363281 120.082031 496.355469 C 118.121094 496.304688 118.121094 496.304688 117.660156 495.847656 C 117.613281 495.242188 117.589844 494.636719 117.578125 494.03125 C 117.570312 493.644531 117.5625 493.261719 117.554688 492.863281 C 117.542969 492.234375 117.542969 492.234375 117.53125 491.589844 C 117.523438 491.164062 117.515625 490.738281 117.507812 490.296875 C 117.480469 488.925781 117.457031 487.554688 117.429688 486.183594 C 117.414062 485.257812 117.394531 484.332031 117.378906 483.402344 C 117.332031 481.125 117.292969 478.847656 117.253906 476.570312 C 116.71875 476.5625 116.1875 476.554688 115.640625 476.542969 C 110.632812 476.457031 105.625 476.363281 100.617188 476.273438 C 98.042969 476.226562 95.46875 476.179688 92.894531 476.132812 C 90.410156 476.089844 87.929688 476.042969 85.445312 475.996094 C 84.496094 475.980469 83.546875 475.964844 82.597656 475.945312 C 81.273438 475.925781 79.945312 475.898438 78.621094 475.875 C 78.226562 475.867188 77.832031 475.859375 77.421875 475.855469 C 76.882812 475.84375 76.882812 475.84375 76.332031 475.832031 C 76.019531 475.828125 75.703125 475.820312 75.382812 475.816406 C 74.613281 475.75 74.613281 475.75 73.796875 475.339844 C 73.660156 468.574219 73.523438 461.808594 73.386719 454.835938 C 66.828125 454.734375 66.828125 454.734375 60.273438 454.640625 C 59.453125 454.625 58.632812 454.609375 57.8125 454.59375 C 57.382812 454.589844 56.957031 454.585938 56.515625 454.582031 C 56.109375 454.574219 55.699219 454.5625 55.28125 454.554688 C 54.925781 454.550781 54.570312 454.542969 54.207031 454.539062 C 53.296875 454.425781 53.296875 454.425781 52.066406 453.605469 C 51.90625 452.746094 51.90625 452.746094 51.894531 451.671875 C 51.890625 451.273438 51.882812 450.871094 51.875 450.457031 C 51.875 450.023438 51.871094 449.589844 51.871094 449.144531 C 51.863281 448.699219 51.859375 448.253906 51.851562 447.796875 C 51.832031 446.375 51.820312 444.953125 51.808594 443.53125 C 51.796875 442.105469 51.777344 440.683594 51.761719 439.257812 C 51.75 438.371094 51.738281 437.484375 51.734375 436.597656 C 51.730469 436.199219 51.726562 435.796875 51.722656 435.386719 C 51.71875 435.03125 51.714844 434.679688 51.714844 434.316406 C 51.746094 433.507812 51.746094 433.507812 51.246094 433.097656 C 50.605469 433.050781 49.964844 433.03125 49.324219 433.019531 C 48.914062 433.011719 48.507812 433.007812 48.085938 433 C 47.640625 432.992188 47.195312 432.988281 46.738281 432.984375 C 46.285156 432.976562 45.828125 432.96875 45.363281 432.960938 C 43.90625 432.9375 42.453125 432.914062 40.996094 432.894531 C 39.082031 432.867188 37.171875 432.835938 35.257812 432.804688 C 34.8125 432.796875 34.367188 432.792969 33.910156 432.785156 C 33.5 432.78125 33.089844 432.773438 32.667969 432.765625 C 32.308594 432.761719 31.945312 432.753906 31.574219 432.75 C 30.746094 432.6875 30.746094 432.6875 30.339844 432.277344 C 30.234375 431.039062 30.160156 429.808594 30.105469 428.570312 C 30.089844 428.171875 30.074219 427.773438 30.054688 427.367188 C 29.832031 421.582031 29.898438 415.789062 29.929688 410.003906 C 29.9375 407.980469 29.945312 405.957031 29.949219 403.929688 C 29.953125 403.136719 29.957031 402.339844 29.964844 401.542969 C 29.972656 398.898438 29.875 396.347656 29.519531 393.726562 C 29.277344 393.722656 29.039062 393.71875 28.792969 393.714844 C 26.304688 393.679688 23.816406 393.640625 21.332031 393.59375 C 20.402344 393.578125 19.472656 393.566406 18.542969 393.550781 C 17.210938 393.535156 15.878906 393.511719 14.542969 393.484375 C 14.128906 393.480469 13.710938 393.476562 13.28125 393.472656 C 12.894531 393.460938 12.507812 393.453125 12.109375 393.445312 C 11.769531 393.441406 11.429688 393.433594 11.078125 393.429688 C 10.25 393.316406 10.25 393.316406 9.429688 392.496094 C 9.347656 391.421875 9.316406 390.390625 9.324219 389.320312 C 9.320312 388.988281 9.320312 388.65625 9.316406 388.3125 C 9.3125 387.195312 9.316406 386.078125 9.316406 384.960938 C 9.316406 384.160156 9.3125 383.363281 9.308594 382.5625 C 9.304688 380.390625 9.304688 378.214844 9.304688 376.042969 C 9.304688 374.230469 9.304688 372.417969 9.300781 370.605469 C 9.296875 366.332031 9.296875 362.058594 9.300781 357.785156 C 9.300781 353.367188 9.296875 348.953125 9.289062 344.535156 C 9.28125 340.75 9.277344 336.964844 9.28125 333.179688 C 9.28125 330.917969 9.28125 328.652344 9.273438 326.390625 C 9.269531 324.261719 9.269531 322.136719 9.273438 320.007812 C 9.277344 319.226562 9.273438 318.441406 9.273438 317.660156 C 9.265625 316.59375 9.269531 315.53125 9.277344 314.464844 C 9.273438 314.152344 9.269531 313.839844 9.265625 313.515625 C 9.277344 312.65625 9.277344 312.65625 9.429688 311.289062 C 11.015625 310.230469 12.324219 310.351562 14.164062 310.355469 C 14.527344 310.351562 14.890625 310.351562 15.261719 310.347656 C 16.484375 310.339844 17.703125 310.339844 18.921875 310.339844 C 19.796875 310.335938 20.671875 310.332031 21.542969 310.324219 C 23.925781 310.316406 26.308594 310.308594 28.691406 310.304688 C 31.203125 310.296875 33.714844 310.285156 36.222656 310.273438 C 41.003906 310.253906 45.78125 310.242188 50.558594 310.226562 C 55.917969 310.210938 61.277344 310.191406 66.636719 310.171875 C 77.265625 310.128906 87.894531 310.089844 98.523438 310.066406 C 100.785156 310.0625 103.046875 310.058594 105.304688 310.050781 C 107.59375 310.042969 109.886719 310.035156 112.175781 310.03125 C 113.035156 310.03125 113.894531 310.027344 114.753906 310.023438 C 115.925781 310.019531 117.101562 310.019531 118.277344 310.015625 C 118.628906 310.015625 118.976562 310.011719 119.335938 310.011719 C 121.714844 310.011719 121.714844 310.011719 122.171875 310.46875 C 122.207031 311.410156 122.214844 312.351562 122.210938 313.289062 C 122.210938 313.710938 122.210938 313.710938 122.210938 314.144531 C 122.207031 315.046875 122.203125 315.949219 122.199219 316.851562 C 122.195312 317.460938 122.195312 318.074219 122.191406 318.683594 C 122.1875 320.183594 122.179688 321.683594 122.171875 323.183594 C 115.945312 325.261719 109.058594 323.855469 102.492188 324.003906 C 102.492188 346.46875 102.492188 368.9375 102.492188 392.085938 C 107.035156 392.417969 107.035156 392.417969 111.574219 392.625 C 111.847656 392.632812 112.121094 392.640625 112.402344 392.652344 C 113.25 392.675781 114.097656 392.703125 114.945312 392.726562 C 115.53125 392.742188 116.117188 392.761719 116.703125 392.78125 C 118.117188 392.824219 119.527344 392.863281 120.941406 392.90625 C 120.945312 393.152344 120.949219 393.398438 120.953125 393.648438 C 121 396.199219 121.046875 398.746094 121.09375 401.292969 C 121.113281 402.246094 121.128906 403.199219 121.144531 404.148438 C 121.167969 405.515625 121.195312 406.878906 121.222656 408.246094 C 121.230469 408.886719 121.230469 408.886719 121.242188 409.542969 C 121.25 409.9375 121.257812 410.332031 121.269531 410.738281 C 121.277344 411.261719 121.277344 411.261719 121.285156 411.792969 C 121.265625 412.59375 121.265625 412.59375 121.761719 413 C 126.453125 413.503906 131.171875 413.453125 135.878906 413.410156 C 137.160156 413.402344 138.441406 413.394531 139.722656 413.386719 C 140.011719 413.382812 140.304688 413.378906 140.605469 413.375 C 141.292969 413.371094 141.980469 413.390625 142.671875 413.410156 C 144.269531 415.011719 143.527344 419.882812 143.53125 422.09375 C 143.527344 423.464844 143.523438 424.832031 143.515625 426.203125 C 143.515625 426.914062 143.511719 427.625 143.511719 428.335938 C 143.503906 430.058594 143.5 431.785156 143.492188 433.507812 C 151.707031 433.464844 159.925781 433.417969 168.144531 433.367188 C 171.957031 433.347656 175.773438 433.324219 179.589844 433.304688 C 182.914062 433.285156 186.238281 433.269531 189.5625 433.246094 C 191.324219 433.234375 193.085938 433.226562 194.847656 433.21875 C 196.503906 433.210938 198.160156 433.199219 199.816406 433.1875 C 200.425781 433.183594 201.035156 433.179688 201.644531 433.179688 C 202.472656 433.175781 203.300781 433.167969 204.128906 433.164062 C 204.59375 433.160156 205.058594 433.15625 205.539062 433.15625 C 206.617188 433.171875 206.617188 433.171875 207.445312 432.6875 C 207.582031 426.460938 207.714844 420.238281 207.855469 413.820312 C 209.332031 413.796875 210.804688 413.773438 212.324219 413.746094 C 213.746094 413.722656 215.167969 413.695312 216.589844 413.667969 C 217.582031 413.652344 218.574219 413.632812 219.566406 413.617188 C 220.988281 413.59375 222.410156 413.566406 223.832031 413.542969 C 224.277344 413.535156 224.722656 413.527344 225.183594 413.519531 C 225.59375 413.511719 226.003906 413.503906 226.425781 413.496094 C 226.789062 413.488281 227.152344 413.484375 227.527344 413.476562 C 228.351562 413.503906 228.351562 413.503906 228.765625 413 C 228.8125 412.386719 228.832031 411.769531 228.84375 411.15625 C 228.851562 410.566406 228.851562 410.566406 228.863281 409.964844 C 228.871094 409.324219 228.871094 409.324219 228.878906 408.667969 C 228.886719 408.234375 228.894531 407.796875 228.902344 407.351562 C 228.925781 405.953125 228.949219 404.554688 228.96875 403.160156 C 228.996094 401.320312 229.027344 399.484375 229.058594 397.648438 C 229.066406 397.007812 229.066406 397.007812 229.074219 396.351562 C 229.085938 395.761719 229.085938 395.761719 229.097656 395.164062 C 229.101562 394.816406 229.105469 394.46875 229.113281 394.109375 C 229.175781 393.316406 229.175781 393.316406 229.585938 392.90625 C 236.078125 392.90625 242.574219 392.90625 249.261719 392.90625 C 249.261719 360.828125 249.261719 328.753906 249.261719 295.703125 C 233.660156 295.71875 218.058594 295.734375 201.984375 295.746094 C 192.714844 295.753906 183.449219 295.757812 174.179688 295.761719 C 168.746094 295.765625 163.3125 295.769531 157.878906 295.769531 C 157.222656 295.773438 156.566406 295.773438 155.90625 295.773438 C 145.425781 295.777344 134.941406 295.785156 124.457031 295.796875 C 113.6875 295.808594 102.914062 295.816406 92.140625 295.820312 C 90.621094 295.820312 89.101562 295.820312 87.582031 295.820312 C 87.28125 295.820312 86.980469 295.820312 86.675781 295.820312 C 81.851562 295.824219 77.027344 295.828125 72.207031 295.835938 C 67.359375 295.84375 62.515625 295.84375 57.671875 295.84375 C 55.042969 295.84375 52.417969 295.84375 49.792969 295.851562 C 47.390625 295.855469 44.988281 295.855469 42.585938 295.851562 C 41.714844 295.851562 40.84375 295.855469 39.972656 295.859375 C 38.789062 295.863281 37.609375 295.859375 36.429688 295.855469 C 36.089844 295.859375 35.746094 295.863281 35.394531 295.867188 C 33.523438 295.847656 32.246094 295.722656 30.746094 294.472656 C 30.5 293.335938 30.5 293.335938 30.507812 291.9375 C 30.507812 291.414062 30.507812 290.890625 30.503906 290.355469 C 30.515625 289.78125 30.523438 289.210938 30.535156 288.640625 C 30.535156 288.054688 30.539062 287.472656 30.539062 286.886719 C 30.542969 285.660156 30.554688 284.4375 30.570312 283.210938 C 30.589844 281.640625 30.601562 280.066406 30.609375 278.496094 C 30.613281 277 30.625 275.5 30.636719 274.003906 C 30.636719 273.71875 30.640625 273.429688 30.640625 273.136719 C 30.648438 272.328125 30.660156 271.519531 30.667969 270.707031 C 30.675781 270.246094 30.679688 269.785156 30.683594 269.3125 C 30.746094 268.226562 30.746094 268.226562 31.15625 267.40625 C 37.789062 267.269531 44.417969 267.132812 51.246094 266.996094 C 51.363281 260.398438 51.363281 260.398438 51.480469 253.804688 C 51.496094 252.980469 51.511719 252.15625 51.527344 251.335938 C 51.535156 250.902344 51.539062 250.472656 51.546875 250.027344 C 51.554688 249.617188 51.5625 249.210938 51.574219 248.789062 C 51.578125 248.433594 51.585938 248.078125 51.589844 247.710938 C 51.65625 246.898438 51.65625 246.898438 52.066406 246.488281 C 52.746094 246.4375 53.425781 246.414062 54.109375 246.40625 C 54.542969 246.394531 54.976562 246.386719 55.425781 246.378906 C 55.898438 246.371094 56.371094 246.367188 56.859375 246.359375 C 57.339844 246.351562 57.824219 246.339844 58.320312 246.332031 C 59.863281 246.304688 61.410156 246.28125 62.957031 246.257812 C 64 246.238281 65.046875 246.222656 66.089844 246.203125 C 68.660156 246.160156 71.226562 246.117188 73.796875 246.078125 C 73.792969 245.828125 73.792969 245.578125 73.792969 245.316406 C 73.78125 242.71875 73.777344 240.117188 73.773438 237.515625 C 73.769531 236.542969 73.769531 235.570312 73.765625 234.597656 C 73.757812 233.207031 73.757812 231.8125 73.753906 230.417969 C 73.753906 229.980469 73.75 229.542969 73.75 229.09375 C 73.75 228.691406 73.75 228.289062 73.75 227.875 C 73.746094 227.515625 73.746094 227.160156 73.746094 226.792969 C 73.796875 225.980469 73.796875 225.980469 74.203125 225.570312 C 74.753906 225.527344 75.300781 225.511719 75.851562 225.507812 C 76.207031 225.507812 76.5625 225.503906 76.925781 225.5 C 77.320312 225.496094 77.710938 225.496094 78.113281 225.496094 C 78.527344 225.492188 78.9375 225.488281 79.359375 225.484375 C 80.253906 225.476562 81.148438 225.46875 82.042969 225.464844 C 83.457031 225.457031 84.871094 225.445312 86.285156 225.433594 C 89.289062 225.410156 92.289062 225.386719 95.292969 225.367188 C 98.769531 225.34375 102.246094 225.316406 105.722656 225.289062 C 107.117188 225.277344 108.515625 225.269531 109.910156 225.261719 C 110.765625 225.253906 111.617188 225.246094 112.46875 225.238281 C 112.859375 225.238281 113.25 225.234375 113.65625 225.234375 C 114.011719 225.230469 114.367188 225.226562 114.734375 225.222656 C 115.042969 225.222656 115.351562 225.21875 115.671875 225.21875 C 116.472656 225.207031 116.472656 225.207031 117.253906 224.75 C 117.261719 224.257812 117.273438 223.761719 117.28125 223.253906 C 117.320312 221.421875 117.363281 219.59375 117.40625 217.765625 C 117.421875 216.972656 117.441406 216.179688 117.457031 215.386719 C 117.480469 214.25 117.503906 213.113281 117.53125 211.976562 C 117.539062 211.617188 117.546875 211.261719 117.554688 210.894531 C 117.617188 208.394531 117.617188 208.394531 118.070312 207.9375 C 118.769531 207.894531 119.464844 207.882812 120.164062 207.878906 C 120.617188 207.878906 121.074219 207.875 121.542969 207.875 C 122.050781 207.875 122.558594 207.875 123.082031 207.875 C 123.882812 207.871094 123.882812 207.871094 124.699219 207.867188 C 126.1875 207.863281 127.675781 207.863281 129.164062 207.859375 C 130.765625 207.859375 132.371094 207.851562 133.972656 207.847656 C 136.75 207.839844 139.53125 207.835938 142.308594 207.828125 C 146.328125 207.820312 150.347656 207.8125 154.367188 207.800781 C 160.890625 207.785156 167.410156 207.765625 173.933594 207.753906 C 174.324219 207.75 174.714844 207.75 175.117188 207.75 C 177.890625 207.742188 180.664062 207.738281 183.4375 207.730469 C 186.605469 207.722656 189.769531 207.71875 192.9375 207.710938 C 193.328125 207.707031 193.71875 207.707031 194.121094 207.707031 C 200.617188 207.691406 207.113281 207.675781 213.609375 207.660156 C 217.621094 207.648438 221.628906 207.636719 225.640625 207.632812 C 228.386719 207.625 231.132812 207.617188 233.882812 207.613281 C 235.46875 207.605469 237.054688 207.601562 238.640625 207.601562 C 240.359375 207.597656 242.074219 207.59375 243.792969 207.589844 C 244.296875 207.589844 244.804688 207.589844 245.328125 207.589844 C 245.785156 207.585938 246.238281 207.582031 246.710938 207.582031 C 247.109375 207.582031 247.503906 207.582031 247.914062 207.578125 C 248.867188 207.585938 248.867188 207.585938 249.671875 207.117188 C 249.675781 206.613281 249.675781 206.109375 249.679688 205.59375 C 249.71875 193.671875 249.761719 181.753906 249.808594 169.832031 C 249.816406 168.367188 249.820312 166.898438 249.824219 165.433594 C 249.828125 165.144531 249.828125 164.851562 249.828125 164.550781 C 249.847656 159.820312 249.863281 155.089844 249.878906 150.355469 C 249.898438 145.507812 249.914062 140.65625 249.933594 135.804688 C 249.945312 133.078125 249.957031 130.351562 249.964844 127.625 C 249.972656 125.0625 249.980469 122.5 249.992188 119.9375 C 249.996094 118.992188 250 118.050781 250.003906 117.105469 C 250.007812 115.824219 250.011719 114.542969 250.019531 113.261719 C 250.019531 112.882812 250.019531 112.503906 250.019531 112.113281 C 250.035156 109.550781 250.035156 109.550781 250.492188 109.09375 C 256.621094 108.582031 262.789062 108.683594 268.941406 108.683594 C 269.078125 95.828125 269.210938 82.96875 269.351562 69.722656 C 270.582031 69.3125 271.390625 69.261719 272.679688 69.265625 C 273.105469 69.265625 273.53125 69.265625 273.972656 69.265625 C 274.429688 69.269531 274.890625 69.269531 275.367188 69.273438 C 275.835938 69.273438 276.308594 69.273438 276.792969 69.273438 C 278.300781 69.277344 279.808594 69.28125 281.316406 69.285156 C 282.339844 69.289062 283.359375 69.289062 284.382812 69.292969 C 286.886719 69.296875 289.394531 69.304688 291.898438 69.3125 C 291.898438 68.796875 291.894531 68.28125 291.894531 67.753906 C 291.878906 63.3125 291.9375 58.882812 292.105469 54.445312 C 292.125 53.890625 292.144531 53.335938 292.164062 52.777344 C 292.210938 51.453125 292.261719 50.128906 292.308594 48.804688 C 292.925781 48.789062 292.925781 48.789062 293.554688 48.773438 C 295.113281 48.734375 296.671875 48.695312 298.234375 48.652344 C 298.902344 48.636719 299.570312 48.617188 300.238281 48.601562 C 304.84375 48.484375 309.441406 48.285156 314.039062 47.984375 C 314.035156 47.554688 314.03125 47.121094 314.027344 46.675781 C 313.972656 40.273438 314.226562 33.875 314.449219 27.480469 C 315.597656 27.152344 316.617188 27.019531 317.8125 27.019531 C 318.152344 27.019531 318.492188 27.019531 318.84375 27.019531 C 319.210938 27.019531 319.582031 27.019531 319.964844 27.023438 C 320.355469 27.023438 320.746094 27.023438 321.152344 27.023438 C 322.445312 27.023438 323.742188 27.023438 325.039062 27.027344 C 325.9375 27.03125 326.835938 27.03125 327.734375 27.03125 C 330.097656 27.03125 332.460938 27.035156 334.824219 27.039062 C 337.664062 27.046875 340.5 27.046875 343.335938 27.050781 C 347.648438 27.054688 351.957031 27.0625 356.265625 27.070312 C 356.402344 20.570312 356.535156 14.074219 356.675781 7.382812 C 358.027344 6.707031 359.527344 6.90625 361.015625 6.90625 C 361.382812 6.902344 361.753906 6.898438 362.132812 6.898438 C 363.378906 6.890625 364.621094 6.886719 365.867188 6.882812 C 366.757812 6.875 367.648438 6.871094 368.539062 6.867188 C 370.972656 6.855469 373.402344 6.84375 375.835938 6.835938 C 377.882812 6.824219 379.929688 6.816406 381.972656 6.804688 C 387.105469 6.78125 392.238281 6.761719 397.371094 6.738281 C 402.039062 6.722656 406.707031 6.699219 411.378906 6.675781 C 415.65625 6.652344 419.9375 6.636719 424.21875 6.617188 C 426.757812 6.605469 429.296875 6.59375 431.835938 6.582031 C 442.375 6.527344 452.910156 6.535156 463.445312 6.691406 Z M 463.445312 6.691406 "/>
<path style=" stroke:none;fill-rule:nonzero;fill:rgb(85.882354%,85.882354%,87.058824%);fill-opacity:1;" d="M 178.699219 495.792969 C 180.980469 495.796875 183.261719 495.796875 185.542969 495.792969 C 203.589844 495.777344 203.589844 495.777344 211.957031 496.257812 C 211.957031 496.394531 211.957031 496.527344 211.957031 496.667969 C 208.410156 496.722656 204.863281 496.777344 201.316406 496.828125 C 199.667969 496.851562 198.019531 496.878906 196.371094 496.902344 C 185.34375 497.070312 174.339844 497.082031 163.3125 496.886719 C 161.859375 496.863281 160.402344 496.839844 158.949219 496.8125 C 156.121094 496.765625 153.289062 496.71875 150.460938 496.667969 C 150.460938 496.53125 150.460938 496.398438 150.460938 496.257812 C 159.871094 495.746094 169.28125 495.785156 178.699219 495.792969 Z M 178.699219 495.792969 "/>
<path style=" stroke:none;fill-rule:nonzero;fill:rgb(96.470588%,96.078432%,98.431373%);fill-opacity:1;" d="M 30.746094 268.636719 C 31.152344 268.769531 31.558594 268.90625 31.976562 269.046875 C 31.976562 277.300781 31.976562 285.558594 31.976562 294.0625 C 31.570312 293.929688 31.167969 293.792969 30.746094 293.652344 C 30.746094 285.398438 30.746094 277.140625 30.746094 268.636719 Z M 30.746094 268.636719 "/>
<path style=" stroke:none;fill-rule:nonzero;fill:rgb(92.156863%,93.333334%,95.294118%);fill-opacity:1;" d="M 325.109375 394.136719 C 330.382812 394.136719 335.660156 394.136719 341.097656 394.136719 C 339.535156 395.175781 338.238281 395.097656 336.429688 395.125 C 335.925781 395.136719 335.925781 395.136719 335.414062 395.148438 C 334.34375 395.175781 333.273438 395.191406 332.207031 395.210938 C 331.480469 395.226562 330.753906 395.242188 330.03125 395.261719 C 328.253906 395.300781 326.476562 395.335938 324.699219 395.367188 C 324.832031 394.960938 324.96875 394.554688 325.109375 394.136719 Z M 325.109375 394.136719 "/>
<path style=" stroke:none;fill-rule:nonzero;fill:rgb(96.078432%,95.686275%,97.254902%);fill-opacity:1;" d="M 451.378906 70.542969 C 451.515625 70.542969 451.648438 70.542969 451.789062 70.542969 C 451.789062 75.957031 451.789062 81.371094 451.789062 86.949219 C 451.652344 86.949219 451.519531 86.949219 451.378906 86.949219 C 451.175781 83.902344 451.175781 83.902344 450.96875 80.796875 C 450.835938 80.796875 450.699219 80.796875 450.558594 80.796875 C 450.457031 77.277344 450.683594 73.996094 451.378906 70.542969 Z M 451.378906 70.542969 "/>
<path style=" stroke:none;fill-rule:nonzero;fill:rgb(87.843138%,87.450981%,89.411765%);fill-opacity:1;" d="M 541.984375 235.414062 C 543.257812 235.390625 544.527344 235.375 545.800781 235.363281 C 546.164062 235.355469 546.523438 235.351562 546.894531 235.34375 C 547.242188 235.339844 547.589844 235.335938 547.949219 235.335938 C 548.429688 235.328125 548.429688 235.328125 548.917969 235.320312 C 549.773438 235.414062 549.773438 235.414062 551.003906 236.234375 C 548.296875 236.371094 545.589844 236.507812 542.804688 236.644531 C 542.667969 236.917969 542.53125 237.1875 542.394531 237.464844 C 542.121094 237.464844 541.851562 237.464844 541.574219 237.464844 C 541.707031 236.789062 541.84375 236.113281 541.984375 235.414062 Z M 541.984375 235.414062 "/>
<path style=" stroke:none;fill-rule:nonzero;fill:rgb(96.078432%,95.294118%,97.254902%);fill-opacity:1;" d="M 10.25 390.035156 C 10.382812 390.035156 10.519531 390.035156 10.660156 390.035156 C 10.660156 390.710938 10.660156 391.386719 10.660156 392.085938 C 14.042969 392.21875 17.421875 392.355469 20.910156 392.496094 C 20.910156 392.628906 20.910156 392.765625 20.910156 392.90625 C 17.390625 393.039062 13.875 393.175781 10.25 393.316406 C 10.25 392.234375 10.25 391.148438 10.25 390.035156 Z M 10.25 390.035156 "/>
<path style=" stroke:none;fill-rule:nonzero;fill:rgb(95.686275%,95.686275%,96.470588%);fill-opacity:1;" d="M 472.289062 182.507812 C 472.421875 182.507812 472.558594 182.507812 472.699219 182.507812 C 472.699219 185.078125 472.699219 187.652344 472.699219 190.300781 C 472.5625 190.300781 472.425781 190.300781 472.289062 190.300781 C 472.152344 191.113281 472.015625 191.925781 471.878906 192.761719 C 471.742188 192.761719 471.609375 192.761719 471.46875 192.761719 C 471.457031 191.746094 471.449219 190.726562 471.441406 189.710938 C 471.4375 189.277344 471.4375 189.277344 471.433594 188.832031 C 471.429688 188.089844 471.445312 187.351562 471.46875 186.609375 C 471.601562 186.472656 471.738281 186.339844 471.878906 186.199219 C 471.972656 185.578125 472.046875 184.953125 472.109375 184.328125 C 472.144531 183.988281 472.175781 183.648438 472.210938 183.300781 C 472.238281 183.039062 472.261719 182.777344 472.289062 182.507812 Z M 472.289062 182.507812 "/>
<path style=" stroke:none;fill-rule:nonzero;fill:rgb(92.941177%,92.156863%,96.470588%);fill-opacity:1;" d="M 30.746094 268.636719 C 31.152344 268.769531 31.558594 268.90625 31.976562 269.046875 C 31.976562 272.429688 31.976562 275.8125 31.976562 279.300781 C 31.84375 279.300781 31.707031 279.300781 31.566406 279.300781 C 31.558594 279.019531 31.546875 278.742188 31.535156 278.453125 C 31.488281 277.1875 31.4375 275.921875 31.386719 274.660156 C 31.371094 274.21875 31.355469 273.78125 31.339844 273.328125 C 31.324219 272.90625 31.304688 272.484375 31.289062 272.050781 C 31.265625 271.464844 31.265625 271.464844 31.242188 270.871094 C 31.191406 269.808594 31.191406 269.808594 30.746094 268.636719 Z M 30.746094 268.636719 "/>
<path style=" stroke:none;fill-rule:nonzero;fill:rgb(87.450981%,87.450981%,89.411765%);fill-opacity:1;" d="M 325.109375 394.136719 C 326.867188 394.136719 328.625 394.136719 330.4375 394.136719 C 328.953125 394.878906 328.234375 395.085938 326.644531 395.210938 C 326.28125 395.242188 325.914062 395.273438 325.539062 395.304688 C 325.261719 395.324219 324.984375 395.34375 324.699219 395.367188 C 324.832031 394.960938 324.96875 394.554688 325.109375 394.136719 Z M 325.109375 394.136719 "/>
</g>
</svg>
