<?xml version="1.0" encoding="UTF-8"?>
<svg xmlns="http://www.w3.org/2000/svg" xmlns:xlink="http://www.w3.org/1999/xlink" width="502px" height="502px" viewBox="0 0 502 502" version="1.1">
<g id="surface1">
<path style=" stroke:none;fill-rule:evenodd;fill:rgb(98.431373%,98.431373%,98.431373%);fill-opacity:1;" d="M 288.75 107.972656 L 288.75 114.226562 L 276 114.253906 C 268.992188 114.273438 263.117188 114.300781 262.949219 114.316406 C 262.714844 114.339844 262.628906 115.851562 262.578125 120.78125 L 262.511719 127.214844 L 249.039062 127.214844 L 249.003906 131.199219 C 248.984375 133.390625 248.933594 136.335938 248.898438 137.75 L 248.828125 140.316406 L 241.886719 140.410156 C 238.066406 140.460938 234.910156 140.535156 234.871094 140.574219 C 234.828125 140.613281 234.757812 144.765625 234.714844 149.800781 C 234.671875 154.835938 234.625 160.226562 234.605469 161.777344 L 234.578125 164.597656 L 223.054688 164.457031 L 223.054688 225.261719 L 185.125 225.316406 C 164.261719 225.34375 146.695312 225.386719 146.089844 225.410156 C 145.484375 225.433594 144.1875 225.464844 143.210938 225.480469 L 141.433594 225.507812 L 141.433594 236.046875 L 140.269531 236.074219 C 139.039062 236.097656 117.960938 236.285156 115.757812 236.289062 L 114.46875 236.292969 L 114.46875 249.242188 L 107.800781 249.273438 C 104.132812 249.289062 101.074219 249.363281 101 249.4375 C 100.925781 249.507812 100.828125 252.429688 100.785156 255.925781 C 100.742188 259.476562 100.613281 262.222656 100.492188 262.148438 C 100.375 262.074219 97.570312 262.09375 94.261719 262.183594 L 88.242188 262.351562 L 88.242188 279.433594 L 222.828125 279.433594 L 222.6875 339.363281 L 216.378906 339.429688 L 210.066406 339.496094 L 210.066406 352.234375 L 205.835938 352.285156 C 203.511719 352.3125 200.589844 352.300781 199.339844 352.257812 L 197.074219 352.179688 L 197.074219 364.425781 L 177.222656 364.472656 L 157.375 364.519531 L 157.242188 352.355469 L 150.316406 352.289062 L 143.394531 352.226562 L 143.394531 339.242188 L 132.179688 339.242188 L 132.027344 338.476562 C 131.824219 337.464844 131.832031 302.296875 132.035156 299.226562 L 132.191406 296.835938 L 144.375 296.835938 L 144.375 293.058594 C 144.375 290.980469 144.441406 289.105469 144.523438 288.890625 C 144.65625 288.539062 141.488281 288.503906 109.714844 288.503906 L 74.761719 288.503906 L 74.761719 339.734375 L 87.507812 339.734375 L 87.507812 364 L 93.480469 364 C 96.769531 364 99.800781 364.066406 100.222656 364.152344 L 100.988281 364.304688 L 100.988281 377.480469 L 114.46875 377.480469 L 114.46875 390.71875 L 141.433594 390.71875 L 141.433594 403.160156 L 155.832031 403.34375 C 163.753906 403.441406 180.328125 403.476562 192.664062 403.414062 L 215.089844 403.304688 L 215.222656 390.71875 L 228.148438 390.6875 C 235.257812 390.671875 241.15625 390.671875 241.257812 390.6875 C 241.359375 390.703125 241.441406 387.792969 241.441406 384.222656 L 241.441406 377.726562 L 244.074219 377.726562 C 245.523438 377.722656 248.613281 377.652344 250.9375 377.5625 L 255.167969 377.402344 L 255.167969 364.734375 L 269.082031 364.734375 L 269.230469 364.183594 C 269.308594 363.878906 269.378906 358.433594 269.378906 352.078125 L 269.382812 340.527344 L 280.90625 340.589844 L 280.921875 336.054688 C 280.929688 333.5625 280.96875 328.210938 281.011719 324.167969 C 281.050781 320.125 281.097656 308.402344 281.117188 298.125 L 281.148438 279.4375 L 321.703125 279.496094 C 362.074219 279.554688 362.257812 279.554688 362.390625 279.066406 C 362.460938 278.796875 362.523438 276.371094 362.523438 273.671875 L 362.527344 268.769531 L 363.9375 268.765625 C 364.710938 268.761719 370.78125 268.734375 377.417969 268.703125 L 389.492188 268.648438 L 389.492188 255.640625 L 396.230469 255.710938 L 402.972656 255.78125 L 402.996094 254.429688 C 403.011719 253.691406 403.007812 251.980469 402.992188 250.632812 C 402.976562 249.285156 403.035156 246.996094 403.121094 245.546875 L 403.28125 242.910156 L 415.964844 242.910156 L 415.964844 225.507812 L 281.394531 225.507812 L 281.394531 165.453125 L 293.648438 165.453125 L 293.683594 164.902344 C 293.703125 164.597656 293.695312 161.730469 293.667969 158.53125 L 293.613281 152.707031 L 306.820312 152.707031 L 306.976562 151.570312 C 307.0625 150.945312 307.132812 148.25 307.132812 145.582031 L 307.132812 140.734375 L 309.277344 140.652344 C 310.457031 140.605469 319.390625 140.535156 329.132812 140.492188 L 346.839844 140.417969 L 346.839844 152.832031 L 360.445312 152.832031 L 360.511719 159.265625 L 360.574219 165.699219 L 372.085938 165.699219 L 372.085938 208.351562 L 359.875 208.351562 L 359.75 210.371094 C 359.679688 211.484375 359.632812 213.304688 359.648438 214.417969 L 359.671875 216.4375 L 429.128906 216.4375 L 429.289062 214.933594 C 429.375 214.101562 429.445312 202.632812 429.445312 189.441406 L 429.445312 165.453125 L 416.453125 165.453125 L 416.453125 141.066406 L 403.09375 141.066406 L 403.03125 134.261719 L 402.964844 127.460938 L 389.492188 127.460938 L 389.492188 114.46875 L 388.449219 114.417969 C 386.816406 114.335938 383.277344 114.300781 372.515625 114.261719 L 362.527344 114.226562 L 362.527344 101.722656 L 288.75 101.722656 L 288.75 107.972656 "/>
<path style=" stroke:none;fill-rule:evenodd;fill:rgb(1.568628%,1.568628%,1.568628%);fill-opacity:1;" d="M 236.90625 0.269531 C 210.082031 1.824219 183.207031 7.746094 158.589844 17.523438 C 142.40625 23.957031 127.726562 31.558594 113.488281 40.882812 C 99.0625 50.332031 87.21875 59.914062 74.671875 72.296875 C 54.324219 92.375 38.546875 114.183594 25.988281 139.59375 C 22.230469 147.195312 20.574219 150.917969 17.523438 158.589844 C 7.621094 183.519531 1.804688 210.125 0.246094 237.605469 C -0.0703125 243.230469 -0.0703125 258.382812 0.246094 264.234375 C 1.726562 291.523438 7.601562 318.429688 17.523438 343.410156 C 23.957031 359.59375 31.558594 374.273438 40.882812 388.511719 C 50.332031 402.9375 59.914062 414.78125 72.296875 427.328125 C 92.375 447.675781 114.183594 463.453125 139.59375 476.011719 C 147.195312 479.769531 150.917969 481.425781 158.589844 484.476562 C 183.519531 494.378906 210.125 500.195312 237.605469 501.753906 C 243.230469 502.070312 258.382812 502.070312 264.234375 501.753906 C 291.523438 500.273438 318.429688 494.398438 343.410156 484.476562 C 359.59375 478.042969 374.273438 470.441406 388.511719 461.117188 C 403.738281 451.144531 416.664062 440.542969 429.703125 427.328125 C 442.085938 414.78125 451.667969 402.9375 461.117188 388.511719 C 468.324219 377.503906 475.515625 364.304688 480.671875 352.601562 C 486.253906 339.941406 491.449219 324.714844 494.753906 311.332031 C 498.425781 296.476562 501.089844 278.734375 501.667969 265.308594 C 501.757812 263.226562 501.925781 261.464844 502.039062 261.394531 C 502.152344 261.324219 502.246094 256.46875 502.246094 250.601562 C 502.246094 244.738281 502.152344 240 502.039062 240.070312 C 501.921875 240.140625 501.753906 238.535156 501.664062 236.503906 C 501.054688 223.03125 498.402344 205.441406 494.753906 190.667969 C 491.449219 177.285156 486.253906 162.058594 480.671875 149.398438 C 478.5 144.472656 473.238281 133.894531 470.609375 129.175781 C 458.722656 107.847656 444.765625 89.503906 427.328125 72.296875 C 414.78125 59.914062 402.9375 50.332031 388.511719 40.882812 C 377.503906 33.675781 364.304688 26.484375 352.601562 21.328125 C 324.824219 9.082031 294.726562 1.902344 264.234375 0.246094 C 259.007812 -0.0390625 241.960938 -0.0234375 236.90625 0.269531 M 288.75 107.972656 L 288.75 114.226562 L 276 114.253906 C 268.992188 114.273438 263.117188 114.300781 262.949219 114.316406 C 262.714844 114.339844 262.628906 115.851562 262.578125 120.78125 L 262.511719 127.214844 L 249.039062 127.214844 L 249.003906 131.199219 C 248.984375 133.390625 248.933594 136.335938 248.898438 137.75 L 248.828125 140.316406 L 241.886719 140.410156 C 238.066406 140.460938 234.910156 140.535156 234.871094 140.574219 C 234.828125 140.613281 234.757812 144.765625 234.714844 149.800781 C 234.671875 154.835938 234.625 160.226562 234.605469 161.777344 L 234.578125 164.597656 L 223.054688 164.457031 L 223.054688 225.261719 L 185.125 225.316406 C 164.261719 225.34375 146.695312 225.386719 146.089844 225.410156 C 145.484375 225.433594 144.1875 225.464844 143.210938 225.480469 L 141.433594 225.507812 L 141.433594 236.046875 L 140.269531 236.074219 C 139.039062 236.097656 117.960938 236.285156 115.757812 236.289062 L 114.46875 236.292969 L 114.46875 249.242188 L 107.800781 249.273438 C 104.132812 249.289062 101.074219 249.363281 101 249.4375 C 100.925781 249.507812 100.828125 252.429688 100.785156 255.925781 C 100.742188 259.476562 100.613281 262.222656 100.492188 262.148438 C 100.375 262.074219 97.570312 262.09375 94.261719 262.183594 L 88.242188 262.351562 L 88.242188 279.433594 L 222.828125 279.433594 L 222.6875 339.363281 L 216.378906 339.429688 L 210.066406 339.496094 L 210.066406 352.234375 L 205.835938 352.285156 C 203.511719 352.3125 200.589844 352.300781 199.339844 352.257812 L 197.074219 352.179688 L 197.074219 364.425781 L 177.222656 364.472656 L 157.375 364.519531 L 157.242188 352.355469 L 150.316406 352.289062 L 143.394531 352.226562 L 143.394531 339.242188 L 132.179688 339.242188 L 132.027344 338.476562 C 131.824219 337.464844 131.832031 302.296875 132.035156 299.226562 L 132.191406 296.835938 L 144.375 296.835938 L 144.375 293.058594 C 144.375 290.980469 144.441406 289.105469 144.523438 288.890625 C 144.65625 288.539062 141.488281 288.503906 109.714844 288.503906 L 74.761719 288.503906 L 74.761719 339.734375 L 87.507812 339.734375 L 87.507812 364 L 93.480469 364 C 96.769531 364 99.800781 364.066406 100.222656 364.152344 L 100.988281 364.304688 L 100.988281 377.480469 L 114.46875 377.480469 L 114.46875 390.71875 L 141.433594 390.71875 L 141.433594 403.160156 L 155.832031 403.34375 C 163.753906 403.441406 180.328125 403.476562 192.664062 403.414062 L 215.089844 403.304688 L 215.222656 390.71875 L 228.148438 390.6875 C 235.257812 390.671875 241.15625 390.671875 241.257812 390.6875 C 241.359375 390.703125 241.441406 387.792969 241.441406 384.222656 L 241.441406 377.726562 L 244.074219 377.726562 C 245.523438 377.722656 248.613281 377.652344 250.9375 377.5625 L 255.167969 377.402344 L 255.167969 364.734375 L 269.082031 364.734375 L 269.230469 364.183594 C 269.308594 363.878906 269.378906 358.433594 269.378906 352.078125 L 269.382812 340.527344 L 280.90625 340.589844 L 280.921875 336.054688 C 280.929688 333.5625 280.96875 328.210938 281.011719 324.167969 C 281.050781 320.125 281.097656 308.402344 281.117188 298.125 L 281.148438 279.4375 L 321.703125 279.496094 C 362.074219 279.554688 362.257812 279.554688 362.390625 279.066406 C 362.460938 278.796875 362.523438 276.371094 362.523438 273.671875 L 362.527344 268.769531 L 363.9375 268.765625 C 364.710938 268.761719 370.78125 268.734375 377.417969 268.703125 L 389.492188 268.648438 L 389.492188 255.640625 L 396.230469 255.710938 L 402.972656 255.78125 L 402.996094 254.429688 C 403.011719 253.691406 403.007812 251.980469 402.992188 250.632812 C 402.976562 249.285156 403.035156 246.996094 403.121094 245.546875 L 403.28125 242.910156 L 415.964844 242.910156 L 415.964844 225.507812 L 281.394531 225.507812 L 281.394531 165.453125 L 293.648438 165.453125 L 293.683594 164.902344 C 293.703125 164.597656 293.695312 161.730469 293.667969 158.53125 L 293.613281 152.707031 L 306.820312 152.707031 L 306.976562 151.570312 C 307.0625 150.945312 307.132812 148.25 307.132812 145.582031 L 307.132812 140.734375 L 309.277344 140.652344 C 310.457031 140.605469 319.390625 140.535156 329.132812 140.492188 L 346.839844 140.417969 L 346.839844 152.832031 L 360.445312 152.832031 L 360.511719 159.265625 L 360.574219 165.699219 L 372.085938 165.699219 L 372.085938 208.351562 L 359.875 208.351562 L 359.75 210.371094 C 359.679688 211.484375 359.632812 213.304688 359.648438 214.417969 L 359.671875 216.4375 L 429.128906 216.4375 L 429.289062 214.933594 C 429.375 214.101562 429.445312 202.632812 429.445312 189.441406 L 429.445312 165.453125 L 416.453125 165.453125 L 416.453125 141.066406 L 403.09375 141.066406 L 403.03125 134.261719 L 402.964844 127.460938 L 389.492188 127.460938 L 389.492188 114.46875 L 388.449219 114.417969 C 386.816406 114.335938 383.277344 114.300781 372.515625 114.261719 L 362.527344 114.226562 L 362.527344 101.722656 L 288.75 101.722656 L 288.75 107.972656 M 0.113281 250.878906 C 0.113281 256.808594 0.144531 259.199219 0.183594 256.191406 C 0.222656 253.183594 0.222656 248.328125 0.183594 245.40625 C 0.144531 242.484375 0.113281 244.945312 0.113281 250.878906 "/>
</g>
</svg>
